<svg width="144" height="122" viewBox="0 0 144 122" fill="none" xmlns="http://www.w3.org/2000/svg">
<path d="M13.8981 76.2218L5.06095 86.1199C12.4024 89.2314 19.8339 84.9118 22.8802 82.7462C32.7167 88.1469 44.243 89.6003 55.1139 86.8106C65.9848 84.0209 75.3837 77.1977 81.3981 67.7293C87.4126 58.2609 89.5907 46.8586 87.4894 35.8424C85.3881 24.8263 79.1653 15.0238 70.0869 8.42954C61.0086 1.83526 49.7569 -1.05542 38.621 0.345638C27.4852 1.7467 17.3019 7.33423 10.1431 15.9714C2.98432 24.6086 -0.612181 35.6464 0.0853856 46.8392C0.782952 58.032 5.72218 68.5388 13.8981 76.2218V76.2218Z" fill="#E9EDF3"/>
<path d="M20.3221 36.8675C29.4389 36.7726 38.5546 36.6098 47.671 36.486C50.7102 36.4448 53.7495 36.4086 56.7888 36.3775C59.4076 36.3503 59.4143 32.2814 56.7888 32.3087C47.672 32.4036 38.5563 32.5664 29.4399 32.6902C26.4007 32.7314 23.3614 32.7676 20.3221 32.7987C17.7033 32.8259 17.6966 36.8948 20.3221 36.8675Z" fill="white"/>
<path d="M20.3221 46.3636L57.1686 45.9821L67.6479 45.8736C70.2667 45.8465 70.2734 41.7776 67.6479 41.8048L30.8014 42.1863L20.3221 42.2948C17.7033 42.3219 17.6966 46.3907 20.3221 46.3636Z" fill="white"/>
<path d="M20.3221 55.8558L57.1686 55.4743L67.6479 55.3658C70.2667 55.3387 70.2734 51.2698 67.6479 51.297L30.8014 51.6785L20.3221 51.787C17.7033 51.8141 17.6966 55.8829 20.3221 55.8558Z" fill="white"/>
<path d="M143.999 77.8921C143.995 68.2456 140.82 58.8674 134.961 51.2001C129.103 43.5327 120.885 38.0007 111.573 35.4549C102.261 32.9092 92.3696 33.4906 83.4204 37.1099C74.4711 40.7291 66.9597 47.1857 62.0413 55.4866C57.123 63.7875 55.0701 73.473 56.1984 83.0534C57.3267 92.6338 61.5738 101.579 68.2863 108.512C74.9989 115.445 83.8052 119.983 93.3508 121.428C102.896 122.873 112.653 121.144 121.119 116.508C124.165 118.673 131.597 122.993 138.938 119.881L130.101 109.983C134.494 105.871 137.995 100.9 140.385 95.3797C142.776 89.8594 144.006 83.9071 143.999 77.8921Z" fill="#2C73E8"/>
<path d="M77.4041 70.6292C86.5209 70.5344 95.6366 70.3715 104.753 70.2477C107.792 70.2065 110.832 70.1703 113.871 70.1393C116.49 70.112 116.496 66.0431 113.871 66.0704C104.754 66.1653 95.6383 66.3282 86.5219 66.4519C83.4827 66.4932 80.4434 66.5293 77.4041 66.5604C74.7853 66.5876 74.7786 70.6565 77.4041 70.6292Z" fill="white"/>
<path d="M77.4041 80.1253L114.251 79.7438L124.73 79.6353C127.349 79.6082 127.355 75.5394 124.73 75.5665L87.8834 75.948L77.4041 76.0565C74.7853 76.0836 74.7786 80.1525 77.4041 80.1253V80.1253Z" fill="white"/>
<path d="M77.4041 89.6175L114.251 89.236L124.73 89.1275C127.349 89.1004 127.355 85.0315 124.73 85.0587L87.8834 85.4402L77.4041 85.5487C74.7853 85.5758 74.7786 89.6447 77.4041 89.6175Z" fill="white"/>
</svg>
