<svg width="144" height="101" viewBox="0 0 144 101" fill="none" xmlns="http://www.w3.org/2000/svg">
<path d="M114.834 0H2.08843C1.53473 0.000623333 1.0039 0.219953 0.612377 0.609871C0.220857 0.999789 0.000625894 1.52845 0 2.07988V98.0944C0.000625894 98.6458 0.220857 99.1745 0.612377 99.5644C1.0039 99.9543 1.53473 100.174 2.08843 100.174H114.834C115.388 100.174 115.919 99.9543 116.31 99.5644C116.702 99.1745 116.922 98.6458 116.923 98.0944V2.07988C116.922 1.52845 116.702 0.999789 116.31 0.609871C115.919 0.219953 115.388 0.000623333 114.834 0ZM116.084 98.0947C116.084 98.4253 115.952 98.7424 115.718 98.9767C115.484 99.2109 115.166 99.3433 114.834 99.3449H2.08843C1.75629 99.344 1.43811 99.2118 1.20375 98.9773C0.969401 98.743 0.838027 98.4255 0.838476 98.0947V2.07988C0.838027 1.7491 0.969401 1.43165 1.20375 1.19725C1.43811 0.962849 1.75629 0.830645 2.08843 0.829664H114.834C115.166 0.831265 115.484 0.963666 115.718 1.19793C115.952 1.4322 116.084 1.74929 116.084 2.07988V98.0947Z" fill="#001840"/>
<path d="M28.1133 83.1027C28.1133 83.2507 28.1092 83.3988 28.1014 83.5428C27.9874 85.7094 27.0429 87.7499 25.4626 89.2433C23.8824 90.7368 21.7869 91.5694 19.6084 91.5694C17.4298 91.5694 15.3344 90.7368 13.7541 89.2433C12.1739 87.7499 11.2294 85.7094 11.1153 83.5428C11.1076 83.3988 11.1035 83.2507 11.1035 83.1027C11.1035 80.8563 11.9995 78.702 13.5945 77.1136C15.1894 75.5252 17.3526 74.6328 19.6082 74.6328C21.8638 74.6328 24.027 75.5252 25.622 77.1136C27.2169 78.702 28.1129 80.8563 28.1129 83.1027H28.1133Z" fill="#2C73E8"/>
<path d="M106.073 77.4541H39.248C38.8813 77.4679 38.5342 77.6228 38.2796 77.8861C38.025 78.1493 37.8828 78.5007 37.8828 78.8662C37.8828 79.2317 38.025 79.583 38.2796 79.8463C38.5342 80.1096 38.8813 80.2644 39.248 80.2782H106.073C106.449 80.2917 106.814 80.1561 107.09 79.9014C107.365 79.6466 107.528 79.2935 107.542 78.9194C107.556 78.5454 107.421 78.181 107.166 77.9063C106.91 77.6315 106.556 77.4689 106.18 77.4541C106.145 77.4528 106.109 77.4528 106.073 77.4541Z" fill="#2C73E8"/>
<path d="M68.0023 85.9258H39.2478C38.8723 85.9258 38.5122 86.0743 38.2467 86.3388C37.9812 86.6032 37.832 86.9618 37.832 87.3358C37.832 87.7098 37.9812 88.0684 38.2467 88.3328C38.5122 88.5973 38.8723 88.7458 39.2478 88.7458H68.0023C68.3778 88.7464 68.7382 88.5985 69.0042 88.3345C69.2701 88.0705 69.4199 87.7121 69.4205 87.3382C69.4211 86.9642 69.2726 86.6053 69.0075 86.3404C68.7424 86.0756 68.3826 85.9264 68.0071 85.9258H68.0023Z" fill="#E0E5ED"/>
<path d="M141.62 66.9812H28.8735C28.2422 66.9805 27.6369 66.7304 27.1905 66.2858C26.744 65.8412 26.4929 65.2384 26.4922 64.6097V15.3325C26.4929 14.7037 26.744 14.1009 27.1905 13.6563C27.6369 13.2117 28.2422 12.9616 28.8735 12.9609H141.619C142.25 12.9616 142.855 13.2117 143.302 13.6563C143.748 14.1009 143.999 14.7037 144 15.3325V64.6083C144 65.2371 143.749 65.84 143.303 66.2849C142.856 66.7297 142.251 66.9802 141.62 66.9812Z" fill="#2C73E8"/>
<path d="M51.8362 30.4271C51.4603 30.4108 51.0932 30.5438 50.8158 30.797C50.5383 31.0502 50.3732 31.4028 50.3568 31.7772C50.3404 32.1516 50.474 32.5171 50.7282 32.7935C50.9824 33.0698 51.3365 33.2342 51.7124 33.2505C51.7537 33.2523 51.7949 33.2523 51.8362 33.2505H118.66C119.025 33.2346 119.37 33.079 119.623 32.816C119.876 32.553 120.017 32.2029 120.017 31.8388C120.017 31.4747 119.876 31.1247 119.623 30.8617C119.37 30.5987 119.025 30.443 118.66 30.4271H51.8362Z" fill="white"/>
<path d="M51.8362 38.6068C51.4603 38.5905 51.0932 38.7235 50.8158 38.9767C50.5383 39.2299 50.3732 39.5825 50.3568 39.9569C50.3404 40.3313 50.474 40.6968 50.7282 40.9732C50.9824 41.2495 51.3365 41.4139 51.7124 41.4302C51.7537 41.432 51.7949 41.432 51.8362 41.4302H118.66C119.025 41.4143 119.37 41.2587 119.623 40.9957C119.876 40.7327 120.017 40.3826 120.017 40.0185C120.017 39.6544 119.876 39.3044 119.623 39.0414C119.37 38.7784 119.025 38.6227 118.66 38.6068H51.8362Z" fill="white"/>
<path d="M51.8355 46.6888C51.4702 46.7047 51.1252 46.8604 50.8724 47.1234C50.6196 47.3864 50.4785 47.7365 50.4785 48.1006C50.4785 48.4647 50.6196 48.8147 50.8724 49.0777C51.1252 49.3407 51.4702 49.4964 51.8355 49.5123H80.59C80.7761 49.5204 80.9621 49.4919 81.1372 49.4284C81.3123 49.3649 81.4731 49.2677 81.6104 49.1424C81.7478 49.017 81.8591 48.8659 81.9378 48.6978C82.0166 48.5296 82.0613 48.3476 82.0694 48.1622C82.0775 47.9768 82.0489 47.7917 81.9852 47.6173C81.9215 47.4429 81.8239 47.2827 81.698 47.1459C81.5721 47.0091 81.4204 46.8983 81.2516 46.8199C81.0827 46.7415 80.9 46.6969 80.7138 46.6888C80.6726 46.6871 80.6313 46.6871 80.59 46.6888H51.8355Z" fill="white"/>
</svg>
