<svg width="24" height="24" viewBox="0 0 24 24" fill="none" xmlns="http://www.w3.org/2000/svg">
<path fill-rule="evenodd" clip-rule="evenodd" d="M11.9933 1.5C12.162 1.5 12.3259 1.55635 12.459 1.6601L23.25 10.0706L22.3177 11.2496L21 10.2221V19.4996C20.9992 19.8972 20.8409 20.2783 20.5598 20.5594C20.2787 20.8405 19.8976 20.9988 19.5 20.9996H13.5007V17.6079H13.5V13.4996H10.5V17.6079H10.4993V20.9996H4.5C4.10242 20.9988 3.72135 20.8405 3.44022 20.5594C3.15908 20.2783 3.00079 19.8972 3 19.4996V10.2154L1.68225 11.2429L0.75 10.0639L11.5275 1.6601C11.6606 1.55635 11.8245 1.5 11.9933 1.5ZM15 13.4996V19.4996H19.5V9.0536L12 3.2036L4.5 9.0461V19.4996H9V13.4996C9.0004 13.1019 9.15856 12.7206 9.43978 12.4394C9.721 12.1582 10.1023 12 10.5 11.9996H13.5C13.8977 12 14.279 12.1582 14.5602 12.4394C14.8414 12.7206 14.9996 13.1019 15 13.4996Z" fill="#66A483"/>
</svg>
