<svg width="24" height="20" viewBox="0 0 24 20" fill="none" xmlns="http://www.w3.org/2000/svg">
<path fill-rule="evenodd" clip-rule="evenodd" d="M11.9933 0.5C12.162 0.5 12.3259 0.556347 12.459 0.660103L23.25 9.0706L22.3177 10.2496L21 9.2221V18.4996C20.9992 18.8972 20.8409 19.2783 20.5598 19.5594C20.2787 19.8405 19.8976 19.9988 19.5 19.9996H13.5007V16.6079H13.5V12.4996H10.5V16.6079H10.4993V19.9996H4.5C4.10242 19.9988 3.72135 19.8405 3.44022 19.5594C3.15908 19.2783 3.00079 18.8972 3 18.4996V9.21535L1.68225 10.2429L0.75 9.06385L11.5275 0.660103C11.6606 0.556347 11.8245 0.5 11.9933 0.5ZM15 12.4996V18.4996H19.5V8.0536L12 2.2036L4.5 8.0461V18.4996H9V12.4996C9.0004 12.1019 9.15856 11.7206 9.43978 11.4394C9.721 11.1582 10.1023 11 10.5 10.9996H13.5C13.8977 11 14.279 11.1582 14.5602 11.4394C14.8414 11.7206 14.9996 12.1019 15 12.4996Z" fill="#8892A4"/>
</svg>
