<svg width="185" height="200" viewBox="0 0 185 200" fill="none" xmlns="http://www.w3.org/2000/svg">
<path d="M0.0234375 158.304L25.9587 138.393L141.455 105.236L180.005 133.534L184.594 135.435L175.194 142.262H168.759L72.1961 200L0.0234375 158.304Z" fill="#D7E6FF"/>
<path d="M1.73143 142.955C1.61353 145.76 2.02628 148.561 2.948 151.213C3.46395 152.688 4.13534 154.104 4.95083 155.438L9.43377 159.776L73.1296 195.459L84.2626 188.614L162.549 142.286L155.508 138.163L155.841 131.388L175.052 139.955V107.808L173.913 88.0647L167.15 35.7091L98.6932 2.56055L95.1335 4.31303L98.6932 31.9734L95.0552 51.6341L11.3075 92.9153L20.6254 111.692H9.63716L22.2879 124.961C21.2239 124.28 12.1798 118.702 4.7748 122.59C3.62077 123.198 2.57419 123.991 1.67666 124.937C1.02548 125.263 0.508127 125.805 0.213651 126.471C-0.0268044 127.227 0.0134613 128.045 0.327085 128.775C1.1603 131.153 1.04295 133.762 1.40675 136.254C1.72711 138.472 1.83583 140.716 1.73143 142.955Z" fill="white"/>
<path d="M98.0036 31.6988L99.2554 32.266C99.0285 31.0377 99.0442 29.7585 98.8955 28.5185C98.5043 25.2404 98.2774 21.9349 97.8784 18.6412C97.4873 15.4413 97.1234 12.2102 96.8574 8.97123C96.7596 7.75857 96.5288 6.56939 96.5288 5.33717C97.8549 5.7792 99.1146 6.53809 100.398 7.10139C104.063 8.71696 107.666 10.4342 111.319 12.0694C122.812 17.2173 134.215 22.5256 145.7 27.6853C149.299 29.2969 153 30.8147 156.528 32.5789C158.011 33.3183 159.536 33.9481 161.042 34.6287C161.907 35.0199 162.756 35.5636 163.687 35.8023C163.687 36.5846 163.855 37.3083 163.91 38.075C164.129 41.2045 164.559 44.2987 164.923 47.3968C165.024 48.2574 164.985 49.1415 165.071 50.006C165.31 52.4743 165.658 54.9505 165.948 57.3993C166.167 59.2809 166.253 61.1859 166.433 63.0753C166.558 64.374 166.824 65.661 166.969 66.9441C167.36 70.2261 167.602 73.555 167.99 76.8292C168.342 79.767 168.459 82.7399 168.815 85.6777C169.547 91.7332 170.102 97.8043 170.826 103.871C171.182 106.833 171.295 109.86 171.659 112.837C172.394 118.924 173.008 125.026 173.615 131.145C173.681 131.841 173.838 132.51 173.92 133.194C174.022 134.055 173.959 134.939 174.065 135.792C174.17 136.645 174.37 137.443 174.389 138.303C173.797 138.114 173.222 137.877 172.668 137.595C171.17 136.957 169.695 136.277 168.22 135.6C165.208 134.211 162.13 132.948 159.082 131.634C158.151 131.242 157.26 130.718 156.321 130.347V131.712C156.869 131.886 157.402 132.107 157.913 132.373C159.45 133.022 160.952 133.762 162.49 134.419C166.914 136.312 171.26 138.503 175.755 140.236C175.727 139.59 175.661 138.949 175.633 138.303C175.563 138.007 175.563 137.699 175.633 137.403C175.888 136.856 176.713 136.469 177.198 136.148C177.949 135.643 178.649 135.072 179.385 134.552C179.983 134.125 180.781 133.691 181.192 133.077C182.322 133.503 183.398 134.364 184.599 134.552C184.599 131.195 183.985 127.753 183.594 124.436C182.96 119.053 182.538 113.682 181.896 108.304C181.79 107.443 181.849 106.559 181.743 105.698C181.462 103.351 181.141 100.977 180.867 98.6375C180.766 97.7808 180.824 96.8967 180.722 96.0401C179.267 83.9761 178.192 71.8338 176.776 59.7738C176.67 58.878 176.732 57.9509 176.627 57.0355C175.899 50.9761 175.199 44.9089 174.62 38.8535C174.491 37.4961 174.413 36.1152 174.229 34.7735C174.186 34.4175 174.033 34.1045 174.018 33.7407C173.982 32.7824 174.159 31.0925 173.56 30.2749C173.294 29.9111 172.5 29.7194 172.085 29.5747C171.186 29.2617 170.266 28.8314 169.39 28.452C165.345 26.6943 161.281 24.9874 157.197 23.3314C150.875 20.781 144.601 18.027 138.334 15.3475C134.074 13.5285 129.756 11.8542 125.504 10.0196C123.274 9.05729 121.025 8.14975 118.791 7.19919C117.203 6.52636 115.661 5.77138 114.018 5.20417C113.627 5.05943 113.264 4.81299 112.845 4.64478C110.165 3.63945 107.58 2.42288 104.912 1.38234C103.762 0.936394 102.62 0.2088 101.391 0.0836223C99.5018 -0.127615 97.2447 -0.0141713 95.7543 1.31975C94.9133 2.07082 94.972 3.27565 95.0932 4.30837C95.2927 5.82223 95.5157 7.33219 95.59 8.85388C95.7191 11.463 96.1846 14.1113 96.4897 16.7009C96.834 19.6348 96.9591 22.6117 97.3151 25.5494C97.6124 27.5797 97.9254 29.649 98.0036 31.6988Z" fill="#FF9603"/>
<path d="M164.723 34.9895C164.723 35.7719 164.95 36.4799 164.95 37.2623C165.803 37.0237 166.483 36.2413 167.16 35.6976C167.907 35.103 168.725 34.5983 169.46 34.0037C170.209 33.3441 171.02 32.7585 171.882 32.2552C172.371 34.79 172.48 37.4188 172.688 39.9849C172.891 42.4767 173.329 44.9842 173.568 47.4838C173.748 49.3693 173.802 51.2939 174.065 53.1677C174.69 57.6623 175.07 62.1844 175.629 66.6908C175.727 67.5122 175.68 68.3533 175.778 69.1786C177.397 82.4084 178.477 95.7202 180.081 108.962C180.805 115.009 181.231 121.088 181.955 127.144C182.111 128.47 182.244 129.796 182.346 131.122C182.42 131.904 182.467 132.589 183.379 132.714C183.273 130.281 182.882 127.832 182.596 125.434C182.354 123.373 182.076 121.253 181.912 119.175C181.845 118.346 181.876 117.513 181.771 116.684C181.481 114.336 181.157 111.97 180.895 109.642C180.793 108.747 180.859 107.827 180.75 106.928C180.456 104.518 180.093 102.065 179.866 99.6438C179.788 98.7832 179.831 97.8991 179.729 97.0385C178.274 84.9706 177.217 72.844 175.778 60.7761C175.676 59.9155 175.739 59.0314 175.637 58.1748C175.355 55.8277 175.035 53.461 174.757 51.1335C174.647 50.2299 174.714 49.3067 174.608 48.3953C174.268 45.5514 173.896 42.7192 173.626 39.8754C173.443 37.9429 173.204 36.0144 173.047 34.0781C173.01 33.307 172.909 32.5403 172.746 31.7858C172.732 31.5435 172.676 31.3054 172.582 31.0816C172.285 30.6005 171.06 30.2993 170.536 30.088C168.694 29.3057 166.808 28.6289 164.989 27.8114C157.948 24.6545 150.727 21.8772 143.623 18.8377C135.733 15.4579 127.811 12.1876 119.921 8.81958C116.096 7.19228 112.211 5.69015 108.409 4.01981C107.122 3.44868 105.819 2.90103 104.497 2.37685C102.893 1.72749 101.489 1.11725 99.7247 1.12507C98.7272 1.12507 96.9082 1.43802 96.3527 2.41206C95.5078 3.89072 97.5497 4.49313 98.4847 4.95081C98.782 5.09946 99.0754 5.24811 99.3844 5.37329C101.786 6.35515 104.079 7.58737 106.461 8.60444C108.245 9.36333 110.068 10.1418 111.804 11.0024C113.224 11.7065 114.715 12.2933 116.154 12.9583C119.354 14.4095 122.531 15.9117 125.75 17.3238C132.67 20.3633 139.48 23.614 146.385 26.7122C150.645 28.625 154.877 30.624 159.137 32.5212C160.287 33.0375 161.429 33.5617 162.564 34.1094C163.248 34.4836 163.972 34.7789 164.723 34.9895Z" fill="white"/>
<path d="M34.3751 115.11C33.2016 114.661 32.1728 113.902 31.0736 113.307C27.9441 111.609 24.8694 109.787 21.7126 108.128C21.1024 107.811 20.4452 107.67 19.8311 107.369C17.3119 106.141 14.7105 104.795 12.3282 103.32C11.8744 103.035 11.6163 102.538 11.1547 102.276C9.15182 101.024 7.34066 99.8623 5.8268 98.0003C4.25214 96.0246 3.15324 93.7131 2.6152 91.2446C2.4157 90.4036 2.13014 89.3865 2.22402 88.5063C2.49002 85.596 5.6899 83.9061 8.23648 85.0992C7.19594 85.5412 6.28056 85.8346 5.59991 86.8321C4.71193 88.1386 5.00922 89.4491 5.15787 90.8925C5.54905 94.6205 7.45802 99.0291 11.3033 100.324C11.3551 99.9803 11.5154 99.6622 11.761 99.4164C11.0295 98.8218 10.1063 98.4501 9.41391 97.7812C7.50886 95.8996 6.83603 93.5369 6.28447 91.0021C5.89329 89.1322 6.02238 86.9651 8.22082 86.3392C9.93418 85.8541 11.8431 87.2859 13.2397 88.1152C16.6273 90.1258 20.1596 91.89 23.5942 93.8225C34.8954 100.195 46.3883 106.246 57.7325 112.533C61.1488 114.423 64.5703 116.296 67.9971 118.15C68.8146 118.596 69.6282 119.065 70.4615 119.472C70.9895 119.734 71.7445 120.043 72.1318 120.497C72.3033 120.788 72.367 121.13 72.3117 121.463V123.736C72.3117 126.865 72.1983 130.022 72.1983 133.167C71.0795 132.811 70.0194 131.994 68.9867 131.442C66.5809 130.144 64.2378 128.755 61.8516 127.413C59.7979 126.24 57.752 125.046 55.6749 123.928C54.693 123.4 53.719 122.86 52.7606 122.32C52.2415 122.087 51.7484 121.8 51.2897 121.463L50.1514 122.144V122.371C51.325 123.208 52.6432 123.806 53.8832 124.522C56.9305 126.279 60.0365 127.941 63.076 129.709C65.2979 131.004 67.5785 132.205 69.7926 133.5C70.927 134.165 72.0848 135.01 73.3366 135.456C73.3366 133.226 73.2427 130.977 73.3366 128.751C73.3953 127.421 73.5596 126.103 73.5596 124.773V121.706C73.5596 121.315 73.4618 120.732 73.6731 120.364C73.9978 119.812 75.1556 119.37 75.6994 119.038C77.358 118.029 79.0401 117.062 80.7065 116.065C84.3914 113.859 88.0698 111.642 91.7417 109.415C93.6976 108.214 95.7747 107.127 97.7306 105.894C101.474 103.547 105.343 101.384 109.106 99.076C120.415 92.156 131.939 85.549 143.217 78.586C148.334 75.4214 153.564 72.4171 158.704 69.2877C160.351 68.2862 162.131 67.4139 163.672 66.2521C161.716 64.9769 159.502 64.0106 157.413 62.9232C154.044 61.1602 150.674 59.3882 147.305 57.607C135.804 51.5477 124.288 45.5235 112.807 39.4328C110.389 38.1497 107.999 36.8354 105.586 35.521C103.806 34.5704 101.877 33.7998 100.164 32.7319C98.9276 31.9495 97.5663 31.4058 96.2872 30.7095C95.716 30.4005 95.0393 29.8293 94.3313 29.9271C93.8149 29.9897 93.4198 30.4044 92.9817 30.643C91.7299 31.3197 90.529 32.0786 89.3203 32.8258C85.7645 35.0281 82.1578 37.1679 78.5628 39.3037C65.4074 47.1273 52.3303 55.0448 39.2257 62.9349C33.0321 66.6824 26.8058 70.4064 20.5469 74.107C17.5231 75.9064 14.5814 77.8349 11.5498 79.5835C9.55474 80.7571 7.60275 81.9619 5.62729 83.1511C3.65183 84.3403 1.8485 85.2478 1.23435 87.6184C0.956609 88.6902 1.16785 89.8285 1.383 90.8925C1.73131 92.8232 2.39053 94.6847 3.33498 96.4043C4.63907 98.7364 6.47358 100.729 8.69024 102.221C10.1493 103.187 11.7649 103.919 13.2905 104.764C16.7094 106.665 20.1127 108.586 23.5355 110.495L31.3122 114.833C32.3136 115.388 33.5615 116.437 34.3751 115.11Z" fill="#3075E9"/>
<path d="M33.463 67.8467C36.8232 68.0188 39.7923 69.8887 42.8004 71.1835C45.6991 72.4313 48.4725 74.0821 51.1912 75.6703C55.7133 78.303 60.1884 81.0178 64.7026 83.6582C66.5372 84.73 68.4266 85.8606 70.1791 87.0537C70.8402 87.5035 71.5248 87.9338 72.2055 88.3563C72.4404 88.559 72.7147 88.7109 73.0113 88.8022C73.555 88.8687 74.1848 87.57 74.5173 87.2023C75.6908 85.8566 77.4472 85.0234 78.9259 84.0377C81.582 82.2813 84.336 80.6618 87.0273 78.9523C88.8111 77.8296 90.4227 76.5309 92.5624 76.1554C94.0802 75.8894 95.2107 76.5974 96.6424 76.8087C97.1549 73.7887 99.7054 70.6085 102.901 70.2329C104.114 70.0882 105.057 70.6241 106.191 70.8979C106.774 68.2066 109.164 66.5754 111.37 65.2571C113.976 63.6924 116.557 62.0612 119.112 60.4299C120.618 59.4676 122.136 58.1415 123.806 57.4883C123.18 56.7763 122.108 56.3343 121.302 55.8297C119.577 54.7461 117.852 53.6704 116.096 52.6416C110.275 49.2266 104.552 45.6238 98.4927 42.6626C96.6144 41.7211 94.6885 40.8776 92.7228 40.1355C91.5493 39.7013 90.3445 39.3532 89.0692 39.6818C88.2634 39.8969 87.4732 40.8553 87.1328 41.5829C86.2683 43.3901 86.108 45.6277 86.0963 47.6032C86.0963 48.8119 85.8889 50.6113 84.1677 50.2906C82.7516 50.0285 82.916 48.5733 82.916 47.4897C82.916 44.9549 83.1976 41.9467 84.512 39.7013C84.8925 39.0061 85.3751 38.3719 85.9437 37.8197C88.6076 35.414 91.8974 36.3685 94.8665 37.5107C95.9863 37.9233 97.0809 38.4014 98.1446 38.9424C98.8448 39.3101 99.5685 39.6505 100.284 39.9986C108.026 43.7305 115.4 48.3894 122.687 52.9271C124.741 54.2063 126.795 55.4776 128.84 56.7763C130.014 57.5117 131.227 58.0907 132.146 59.1469C134.102 61.3805 134.051 63.8841 134.051 66.6966C134.051 69.8535 134.117 72.9086 131.939 75.4513C130.503 77.1255 128.238 78.1348 126.356 79.2144C123.943 80.5992 121.557 82.0583 119.167 83.4861C117.183 84.6596 115.012 86.3104 112.575 86.2244C111.714 86.1521 110.871 85.9339 110.083 85.5789C107.885 84.6635 105.984 82.2969 105.874 79.8677C105.82 78.6941 105.874 77.5206 105.874 76.3471C105.934 75.8255 105.914 75.2979 105.816 74.7823C105.288 73.2567 102.905 73.3076 101.806 74C100.601 74.7628 100.077 76.3901 99.721 77.6849C99.5763 78.2091 99.3494 78.835 99.4707 79.3904C99.5489 79.7386 99.8619 79.9889 99.9871 80.3097C100.243 80.8875 100.415 81.4986 100.499 82.1248C100.676 83.5291 100.535 85.0313 100.535 86.4278C100.535 87.8243 100.676 89.2677 100.499 90.6329C100.188 92.6627 99.1271 94.5021 97.5265 95.7887C96.5212 96.618 95.2577 97.2009 94.135 97.8502C91.4867 99.3876 88.8189 100.941 86.2253 102.568C84.8641 103.496 83.4243 104.304 81.9223 104.981C81.409 105.238 80.8607 105.417 80.295 105.513C78.6513 105.655 77.008 105.239 75.6293 104.333C74.2507 103.426 73.2169 102.083 72.6944 100.518C72.3698 99.4971 72.4558 98.394 72.4558 97.3378V93.4729C72.4558 93.0544 72.5888 92.3424 72.2406 92.0295C71.9843 91.8607 71.7148 91.7129 71.4348 91.5874C70.7268 91.1376 70.007 90.7073 69.3068 90.2496C66.5685 88.4658 63.7755 86.8307 61.0138 85.1095C56.4253 82.25 51.7428 79.5547 47.033 76.9143C43.8232 75.0459 40.4935 73.3916 37.0657 71.9619C36.0369 71.5708 34.7187 71.0974 33.5921 71.0974C30.5448 71.0974 29.9697 74.6728 29.6803 76.9964C29.5277 78.1387 29.8563 79.4061 29.5238 80.517C29.2578 81.4089 28.5302 82.027 27.5875 81.8275C26.0462 81.5067 26.1166 79.6486 26.3826 78.4751C26.4426 77.9845 26.4713 77.4906 26.4687 76.9964C26.5734 76.0034 26.7354 75.0173 26.9537 74.043C27.1924 72.9203 27.7909 71.9345 28.1547 70.8588C23.0694 73.8592 18.074 76.969 13.0082 79.9889C11.5921 80.8378 10.1134 81.6202 8.74432 82.5394C8.23579 82.8837 7.59424 83.0636 7.24609 83.5878C9.20199 83.9555 10.8137 85.2112 12.5231 86.1344C16.3136 88.1842 20.069 90.3004 23.84 92.3933C35.0042 98.5348 46.2037 104.614 57.3289 110.833C60.9121 112.836 64.511 114.804 68.1059 116.791C69.2208 117.405 70.3239 118.07 71.4661 118.638C71.8847 118.845 72.3345 119.209 72.8118 119.252C73.5041 119.318 74.0909 118.696 74.6503 118.387C76.215 117.519 77.7797 116.564 79.3092 115.649C84.7858 112.316 90.2623 108.964 95.7975 105.748C101.051 102.701 106.269 99.5401 111.445 96.3598C121.291 90.2887 131.297 84.4288 141.237 78.5064C145.955 75.6977 150.696 72.9008 155.382 70.0334C156.516 69.341 157.655 68.6682 158.793 67.9797C159.619 67.4868 160.448 66.8062 161.34 66.4698V66.1294C160.632 65.9495 160.018 65.4762 159.384 65.1319C158.069 64.4278 156.732 63.7393 155.405 63.0626C151.494 61.0597 147.582 59.0217 143.729 56.9054C140.748 55.2664 137.681 53.7955 134.673 52.2113C126.423 47.8418 118.153 43.5153 109.903 39.1458C106.238 37.1899 102.612 35.148 98.88 33.3407C97.949 32.8909 97.0376 32.3706 96.1222 31.8895C95.688 31.6587 95.2498 31.287 94.7569 31.201C94.2641 31.1149 93.7907 31.4592 93.4074 31.7134C92.7033 32.175 91.9718 32.6601 91.2325 33.063C87.5827 35.0541 84.1521 37.4599 80.5376 39.5292C75.1275 42.6234 69.8583 45.9485 64.4992 49.1288C58.6158 52.6233 52.7481 56.1439 46.8961 59.6906C43.7666 61.5957 40.5824 63.4303 37.4569 65.351C36.8936 65.6952 36.3382 66.0825 35.7592 66.3954C34.9768 66.7866 34.0693 67.1778 33.4865 67.8428L33.463 67.8467ZM126.102 60.0701C124.537 60.4612 123.094 61.6583 121.733 62.4954C118.971 64.2009 116.205 65.9143 113.518 67.6981C111.992 68.7034 110.267 69.4153 109.493 71.1874C108.902 72.5331 109.074 74.0235 109.074 75.4552C109.074 77.8492 108.476 81.2642 111.12 82.5355C111.517 82.7166 111.939 82.8354 112.372 82.8876C112.894 82.948 113.422 82.9229 113.937 82.8133C114.5 82.6998 114.981 82.2695 115.466 81.984C116.444 81.4011 117.445 80.8574 118.416 80.2589C121.232 78.5298 124.131 76.9221 126.939 75.1735C128.43 74.2464 129.924 73.4484 130.562 71.6842C130.953 70.6437 130.773 69.3762 130.773 68.2927C130.773 66.5128 131.105 64.3417 130.597 62.6206C130.281 61.7272 129.654 60.9774 128.831 60.5083C128.008 60.0393 127.043 59.8823 126.114 60.0661L126.102 60.0701ZM92.5898 79.4921C90.8139 79.9342 89.1709 81.4011 87.6531 82.3712C85.6347 83.6621 83.6044 85.0156 81.5468 86.2361C79.3367 87.5505 76.9622 88.6066 75.8982 91.0867C75.4209 92.2016 75.6596 93.6998 75.6596 94.8851C75.6596 96.2933 75.4248 97.9324 75.6947 99.3132C75.8644 100.058 76.2532 100.734 76.8109 101.256C77.3687 101.778 78.0699 102.12 78.8242 102.239C79.3161 102.303 79.8149 102.289 80.3029 102.2C80.9771 102.014 81.6138 101.713 82.1845 101.308C83.1546 100.749 84.1403 100.193 85.0791 99.5949C87.7353 97.9128 90.5048 96.4185 93.1922 94.7755C94.7178 93.8445 96.3217 93.1248 97.0101 91.3566C97.4835 90.1831 97.3466 88.8726 97.3466 87.613C97.3466 84.9335 98.0976 81.0295 95.0738 79.7073C94.7184 79.5394 94.3323 79.4462 93.9394 79.4335C93.48 79.3918 93.0171 79.4102 92.5624 79.4882L92.5898 79.4921Z" fill="white"/>
<path d="M159.604 82.2656C159.551 82.6399 159.597 83.0216 159.737 83.3727C159.944 83.713 160.32 83.8303 160.519 84.1981C159.209 84.5423 157.894 85.6259 156.76 86.3535C155.121 87.3979 153.388 88.3094 151.753 89.3499C146.581 92.6788 141.128 95.5736 135.941 98.8869C132.691 100.964 129.291 102.799 125.978 104.79C115.093 111.393 104.185 117.956 93.2558 124.478C88.859 127.107 84.4426 129.696 80.0731 132.368C78.7822 133.15 77.4678 133.913 76.1886 134.715C75.2811 135.282 74.3305 136.045 73.3408 136.444C72.8323 136.647 72.3199 136.268 71.8817 136.053C70.7082 135.431 69.5581 134.703 68.3611 134.097C66.7964 133.315 65.3178 132.364 63.7843 131.519C60.3928 129.645 56.9504 127.846 53.6137 125.894C52.1858 125.061 50.7346 124.231 49.2637 123.473C48.9508 123.308 47.8594 123.156 47.8438 123.785C47.8438 124.208 48.8217 124.517 49.1229 124.701C50.4881 125.542 51.9394 126.356 53.375 127.075C55.0454 127.909 56.6531 128.902 58.2726 129.833C61.5507 131.715 64.8992 133.565 68.2594 135.31C69.4329 135.928 70.5791 136.659 71.78 137.289C72.1712 137.5 72.7854 137.989 73.247 137.848C73.6979 137.652 74.1278 137.411 74.53 137.129C75.3476 136.655 76.1495 136.166 76.9436 135.662C79.1421 134.253 81.4226 132.923 83.6719 131.601C91.4134 127.021 99.1548 122.401 106.818 117.695C111.082 115.082 115.424 112.57 119.727 110.012C128.376 104.876 136.939 99.5323 145.588 94.4079C149.339 92.1899 153.075 89.9406 156.807 87.6913C158.254 86.819 159.721 85.9818 161.157 85.0821C161.82 84.7283 162.454 84.3229 163.054 83.8695C162.366 83.4722 161.651 83.1232 160.914 82.825C160.507 82.5759 160.066 82.3874 159.604 82.2656Z" fill="#3075E9"/>
<path d="M11.3019 102.272C11.1506 101.949 11.0503 101.604 11.0046 101.251C10.9851 100.941 11.1337 100.562 10.9577 100.284C10.723 99.8931 10.0776 99.6741 9.72159 99.4315C9.0715 98.9799 8.47558 98.4548 7.94562 97.8668C6.11098 95.8796 5.55944 93.1453 5.12914 90.5791C4.91008 89.253 4.81228 87.8917 5.73546 86.7651C6.08362 86.3211 6.50897 85.9434 6.99114 85.6503C7.38232 85.4312 7.84784 85.3569 8.23511 85.1261C5.77068 83.491 2.28917 85.928 2.21484 88.6467C2.24751 89.6074 2.39459 90.5608 2.65296 91.4867C3.40794 94.9212 5.32081 98.258 8.12948 100.394C9.06831 101.102 10.1245 102.013 11.2824 102.283L11.3019 102.272ZM18.5584 95.242V95.0151C17.2333 94.1144 15.9587 93.1415 14.7404 92.1008C14.1771 91.6314 13.5043 91.3967 13.4417 90.583C14.2671 90.6261 14.983 91.1111 15.7145 91.4593C17.0445 92.093 18.3979 92.6837 19.6967 93.3761C20.7763 93.9511 21.9107 94.4088 22.9904 94.9877C26.7692 97.0062 30.5284 99.2242 33.8848 101.904C35.3047 103.038 36.889 104.008 38.2543 105.201C38.5163 105.432 39.5843 105.984 39.3339 106.445C39.1501 106.762 38.6845 106.547 38.4459 106.445C37.6636 106.089 36.8343 105.741 36.0676 105.346C35.1718 104.881 34.2408 104.478 33.3293 104.036C32.9381 103.844 32.5469 103.531 32.0814 103.566C31.5494 103.613 30.9431 104.161 30.4854 104.419C29.5075 104.971 28.5295 105.534 27.5789 106.129C27.0461 106.529 26.4551 106.846 25.8265 107.067C26.2176 107.877 27.6455 108.35 28.4239 108.777C30.5284 109.919 32.5626 111.202 34.6828 112.297C35.383 112.661 36.2475 113.44 37.069 113.491C37.8904 113.541 38.8097 112.657 39.4552 112.29C38.8606 111.609 38.0508 111.143 37.3232 110.615C36.5409 110.04 35.7585 109.411 34.9762 108.789C34.6437 108.515 33.5366 107.885 33.5718 107.408C33.6188 106.821 34.5537 107.353 34.7884 107.466C36.0715 108.077 37.378 108.64 38.6493 109.285C42.0174 110.975 45.4324 112.618 48.6166 114.637C50.4004 115.767 52.0629 117.097 53.7958 118.294C55.2588 119.307 56.6554 120.43 58.0597 121.521C58.3766 121.768 59.4171 122.382 59.3428 122.844C59.2958 123.121 58.9907 123.117 58.7834 123.059C58.1901 122.843 57.6146 122.582 57.0622 122.276C56.1937 121.862 55.3371 121.42 54.4647 121.009C54.1018 120.778 53.7062 120.603 53.2912 120.489C52.6809 120.418 51.5778 121.224 51.261 121.705C51.9615 121.945 52.6271 122.276 53.2403 122.691C54.4491 123.372 55.6578 124.056 56.8783 124.721C60.3989 126.63 63.8883 128.59 67.3463 130.589C68.3829 131.184 69.4117 131.786 70.4757 132.365C71.0312 132.67 71.5554 133.077 72.1813 133.198C72.1813 130.014 72.2947 126.826 72.2947 123.653V121.361C72.3522 121.038 72.2881 120.705 72.1148 120.426C71.6461 120.031 71.118 119.713 70.55 119.483C69.6855 119.053 68.8289 118.58 67.9878 118.103C64.6354 116.19 61.1891 114.441 57.8172 112.544C46.5551 106.187 35.1757 99.9831 23.7845 93.8885C20.2835 92.0187 16.7785 90.1097 13.34 88.1264C11.8496 87.2658 10.0345 85.8928 8.21553 86.3231C7.58037 86.491 7.01837 86.8638 6.61664 87.3836C6.21492 87.9034 5.99592 88.5413 5.99363 89.1983C6.02786 89.6954 6.09715 90.1895 6.20097 90.6769C6.63909 93.8572 8.05515 97.9059 11.3528 99.1851C11.9943 99.4354 12.8745 98.5944 13.3947 98.2658C14.1771 97.7729 15.0025 97.3387 15.781 96.8419C16.6615 96.213 17.6023 95.6731 18.5896 95.2303L18.5584 95.242Z" fill="white"/>
<path d="M156.311 87.8365C156.545 88.482 157.175 88.6541 157.735 88.9748C158.294 89.2956 158.756 89.6829 159.378 89.7572V90.0975C158.576 90.2227 157.781 90.8799 157.101 91.3102C155.814 92.1238 154.503 92.914 153.189 93.7003C148.581 96.4698 143.926 99.1573 139.337 101.974C131.729 106.668 123.995 111.112 116.356 115.728C108.321 120.578 100.317 125.46 92.2158 130.244C87.1305 133.245 82.0451 136.233 77.0341 139.363C75.5946 140.259 74.1394 141.147 72.6646 141.98C72.203 142.242 71.4911 142.903 70.9513 142.895C70.4701 142.895 69.899 142.387 69.4843 142.164C68.3304 141.553 67.1842 140.931 66.0576 140.282C62.3257 138.131 58.4648 136.198 54.7134 134.121C43.9012 128.175 32.952 122.46 22.1633 116.455C18.9126 114.644 15.5876 112.935 12.3525 111.104C11.1555 110.419 9.91936 109.79 8.71062 109.117C7.95173 108.698 7.16938 108.15 6.32051 107.943V107.599C8.38203 106.793 10.0993 105.115 12.1178 104.192C11.8174 103.865 11.4146 103.649 10.9756 103.582C10.557 103.582 10.1932 103.973 9.84113 104.184C8.90621 104.708 7.99868 105.26 7.10287 105.815C6.2501 106.331 5.37776 106.813 4.5289 107.325C4.06893 107.558 3.64582 107.857 3.27323 108.213C1.95887 109.778 3.09329 112.692 4.23163 114.046C5.8785 116.001 8.5346 117.175 10.7487 118.388C13.9642 120.148 17.0975 122.096 20.2818 123.923C27.1783 127.87 34.0982 131.868 40.893 135.987C44.0224 137.896 47.2927 139.672 50.4573 141.553C52.0729 142.512 53.7745 143.341 55.351 144.358C57.2052 145.551 59.1728 146.572 61.0779 147.671C63.4836 149.06 65.8464 150.527 68.2717 151.88C69.3396 152.479 70.3919 153.109 71.4402 153.746C71.8314 153.985 72.3165 154.384 72.8055 154.318C73.5017 154.224 74.2802 153.461 74.8866 153.117C76.7759 152.041 78.5793 150.82 80.4609 149.737C86.9936 145.97 93.4206 142.011 99.8634 138.091C113.707 129.673 127.637 121.4 141.532 113.056C146.268 110.211 151.005 107.366 155.743 104.52C158.02 103.147 160.348 101.868 162.589 100.436C161.779 99.6149 160.242 99.4663 159.577 98.5666C159.268 98.1519 159.405 97.393 159.405 96.9158C159.405 95.6249 159.299 94.3379 159.291 93.0509C159.291 92.5933 159.17 91.9126 159.409 91.4862C159.894 90.6334 161.165 90.5865 161.678 89.7455C160.705 89.2875 159.758 88.7769 158.842 88.216C158.4 87.9421 157.793 87.4336 157.246 87.4336C156.91 87.5039 156.592 87.6409 156.311 87.8365Z" fill="#FF9603"/>
<path d="M33.3509 116.018C32.8423 115.459 32.0834 115.189 31.4301 114.845C30.3309 114.25 29.2591 113.616 28.156 113.026C24.518 111.07 20.9465 108.997 17.3399 107.001C16.2172 106.383 15.0475 105.801 13.9679 105.116C13.4633 104.799 12.7278 104.216 12.1098 104.236C11.4917 104.255 10.5764 105.018 10.0444 105.37C8.83953 106.153 7.55255 106.896 6.30469 107.616V107.96C8.38185 108.742 10.4082 110.092 12.3367 111.183C15.5756 113.014 18.8655 114.782 22.1475 116.531C28.6802 120.004 35.119 123.646 41.6478 127.124C45.3249 129.08 49.0411 131.016 52.6595 133.085C56.9977 135.569 61.4454 137.877 65.8462 140.244C67.0667 140.897 68.2598 141.601 69.4881 142.247C69.9066 142.466 70.4699 142.974 70.955 142.978C71.4987 142.978 72.2146 142.325 72.6684 142.063C74.2096 141.183 75.7157 140.24 77.2334 139.325C82.6826 136.019 88.1865 132.812 93.6121 129.494C108.274 120.556 123.064 111.891 137.772 103.019C142.909 99.929 147.994 96.7604 153.193 93.7835C154.511 93.0285 155.798 92.1914 157.105 91.4051C157.82 90.9709 158.571 90.345 159.381 90.1221V89.7544C158.797 89.5495 158.245 89.2651 157.738 88.9094C157.256 88.698 156.813 88.4071 156.428 88.0488C155.61 88.2053 154.949 88.7373 154.261 89.1754C153.111 89.903 151.914 90.5993 150.74 91.2878C145.902 94.1278 141.078 97.0094 136.266 99.9329C126.487 105.914 116.598 111.711 106.768 117.61C101.455 120.798 96.1744 124.057 90.8309 127.206C86.6713 129.655 82.5326 132.132 78.4148 134.638C77.1435 135.421 75.8995 136.25 74.5891 136.985C74.1392 137.232 73.615 137.709 73.0986 137.791C72.5158 137.885 71.5535 137.134 71.0684 136.86C69.3668 135.91 67.6182 135.002 65.9479 133.993C62.9515 132.19 59.7985 130.64 56.759 128.908C55.4212 128.145 54.0482 127.437 52.7103 126.682C51.1456 125.802 49.6279 124.769 47.9927 124.03C47.0891 123.619 46.0681 124.605 45.1567 124.781C43.3634 125.114 41.51 124.792 39.9344 123.873C38.534 123.091 37.1101 122.265 35.6784 121.526C34.7787 121.06 33.6756 120.622 32.9401 119.926C32.6457 119.675 32.4168 119.356 32.2732 118.997C32.1296 118.638 32.0757 118.249 32.1162 117.864C32.1566 117.479 32.2902 117.11 32.5053 116.788C32.7204 116.467 33.0106 116.202 33.3509 116.018Z" fill="#F6F9FE"/>
<path d="M13.4707 90.5645C13.4981 91.4055 14.0966 91.5972 14.6755 92.0822C15.4031 92.6964 16.1738 93.2558 16.9209 93.8543C17.6681 94.4528 18.2744 95.063 19.268 94.8831C18.9902 94.0186 17.7893 93.6391 17.2221 92.9507C18.556 93.4709 19.8352 94.222 21.1339 94.8674C24.0695 96.2853 26.8997 97.9115 29.603 99.7337C31.0934 100.774 32.5603 101.85 34.0428 102.898C34.7118 103.372 35.3377 104.013 36.1005 104.314C34.6687 104.279 33.5734 102.574 32.1261 103.407C33.887 104.384 35.7054 105.254 37.5713 106.012C37.9312 106.165 39.1673 107.057 39.4372 106.427C39.6563 105.914 38.604 105.367 38.2989 105.105C36.9532 103.931 35.4159 102.984 34.0194 101.885C29.6264 98.4389 24.7719 95.9314 19.8547 93.3575C18.5482 92.6729 17.1947 92.0822 15.8686 91.4407C15.0785 91.0691 14.343 90.584 13.4707 90.5645Z" fill="#3075E9"/>
<path d="M17.0671 92.8839C17.0163 92.9348 17.1375 92.927 17.1453 92.9191C17.1531 92.9113 17.0749 92.8761 17.0671 92.8839ZM17.2196 92.9583C17.6773 93.7954 19.0073 94.7108 19.9579 94.4369C19.7584 94.0457 19.4611 93.9792 19.0817 93.8032C18.4899 93.4597 17.8663 93.1741 17.2196 92.9504V92.9583Z" fill="#F6F9FE"/>
<path d="M33.5765 102.495C32.4655 101.932 31.5345 101.001 30.5057 100.3C28.3229 98.8217 26.1088 97.4995 23.8047 96.2282C22.7134 95.6257 21.5711 94.8629 20.3937 94.4522C19.537 94.1549 18.1913 95.3206 17.5068 95.7666C15.8716 96.8384 14.1152 97.7225 12.4801 98.8021C11.5217 99.4319 10.755 100.48 11.0601 101.689C11.5374 103.598 14.0722 104.224 15.5743 105.124C18.0466 106.606 20.8748 108.472 23.8986 107.921C25.9562 107.529 27.744 106.035 29.5004 105.014C30.404 104.494 31.288 103.95 32.1838 103.418C32.6932 103.185 33.163 102.873 33.5765 102.495Z" fill="#FF9603"/>
<path d="M73.1246 151.813V143.176C72.4166 143.387 71.7203 144.178 70.9653 144.166C70.535 144.166 70.0969 143.822 69.7331 143.626C68.849 143.141 67.9728 142.66 67.0965 142.167C63.9671 140.418 60.7712 138.811 57.6652 137.046C45.6716 130.244 33.2908 124.137 21.2855 117.311C17.182 114.964 13.0081 112.746 8.84983 110.509C7.85624 109.977 6.87047 109.425 5.84949 108.944C5.37225 108.725 4.90284 108.498 4.38648 108.764C3.78406 109.077 3.74885 109.719 3.7958 110.329C3.95492 111.617 4.5177 112.822 5.40354 113.771C6.28761 114.776 7.69586 115.265 8.8029 115.962C11.6585 117.753 14.6276 119.381 17.5419 121.074C30.795 128.773 44.0443 136.473 57.2897 144.174C60.8533 146.235 64.3739 148.367 67.9571 150.401C68.9468 150.961 69.913 151.543 70.9105 152.119C71.4034 152.408 71.9511 152.924 72.534 152.991C73.1168 153.057 73.8092 152.439 74.2825 152.142C75.6243 151.309 76.9738 150.456 78.3469 149.67C84.2772 146.278 90.1527 142.711 95.95 139.108C99.987 136.593 104.118 134.23 108.21 131.82C112.54 129.27 116.816 126.625 121.118 123.997C127.569 120.022 134.188 116.306 140.619 112.3C145.286 109.394 150.035 106.57 154.76 103.761C156.595 102.673 158.511 101.672 160.276 100.459C160.159 100.337 160.017 100.242 159.859 100.18C159.702 100.118 159.533 100.09 159.364 100.099C158.77 100.205 158.14 100.717 157.643 101.034C156.708 101.637 155.687 102.122 154.772 102.744C152.98 103.96 151.048 104.993 149.186 106.104C145.892 108.06 142.641 110.098 139.347 112.05C125.171 120.456 111.069 128.988 96.9709 137.516C91.2597 140.97 85.5211 144.389 79.8021 147.831C77.5762 149.169 75.3035 150.425 73.1168 151.825L73.1246 151.813ZM33.0091 102.834C33.2595 103.272 33.6898 103.393 34.1357 103.597C34.7528 103.949 35.4093 104.227 36.0916 104.426C35.3249 103.687 34.0888 102.45 33.0091 102.834Z" fill="#F6F9FE"/>
<path d="M156.65 104.199C157.573 104.591 158.84 105.138 159.49 105.905C158.965 106.066 158.472 106.317 158.034 106.648C156.963 107.29 155.918 108.025 154.819 108.604C153.094 109.523 151.478 110.619 149.8 111.616C146.671 113.489 143.533 115.368 140.388 117.253C124.444 126.86 108.486 136.448 92.5157 146.017C87.6142 148.962 82.7088 151.916 77.7878 154.834C76.1957 155.776 74.6584 156.821 73.0193 157.705C72.5616 157.955 72.0727 158.425 71.5602 158.546C71.1964 158.632 70.594 158.155 70.285 157.971C69.2444 157.384 68.1648 156.829 67.1555 156.168C65.806 155.272 64.3038 154.529 62.8956 153.723C60.5915 152.404 58.3266 151.008 56.0147 149.713C44.8661 143.454 33.9052 136.855 22.8505 130.448C18.9739 128.202 15.0699 126.004 11.1973 123.743C10.4973 123.273 9.76233 122.857 8.9988 122.499C8.36509 122.256 7.46538 122.155 6.97249 121.693C8.17733 121.38 9.19441 120.347 10.2858 119.776C10.7865 119.514 11.4593 119.307 11.6354 118.736C11.2911 118.65 10.853 118.317 10.5127 118.372C10.0862 118.508 9.68844 118.722 9.33915 119.002C8.70935 119.393 8.05998 119.784 7.42236 120.175C4.6841 121.826 1.16349 123.136 0.193363 126.481C-0.154787 127.709 0.0564479 129.094 0.142508 130.342C0.271597 132.208 0.373289 134.074 0.59235 135.916C0.721439 137.012 0.654953 138.111 0.729277 139.206C1.15958 145.496 1.12044 152.377 5.67769 157.345C6.85969 158.655 8.21531 159.798 9.70686 160.741C10.7552 161.39 11.8818 161.887 12.9458 162.509C16.13 164.371 19.3847 166.143 22.6197 167.915C27.8107 170.755 32.9116 173.759 38.1104 176.579C44.2285 179.897 50.3426 183.229 56.3981 186.676C60.5329 189.023 64.6755 191.425 68.8846 193.647C69.9251 194.198 70.9421 194.801 71.9827 195.352C72.3504 195.552 72.8785 195.951 73.3205 195.872C74.1029 195.735 75.0496 194.875 75.7224 194.456C77.3262 193.459 78.9535 192.5 80.5886 191.534C86.8475 187.904 92.9851 184.102 99.1775 180.358C109.837 173.927 120.602 167.649 131.207 161.104C133.879 159.457 136.649 157.975 139.324 156.34C144.613 153.124 149.914 149.901 155.234 146.736C157.898 145.148 160.503 143.431 163.221 141.937C161.911 140.935 160.155 140.352 158.688 139.589C158.034 139.261 157.366 138.729 156.63 138.623C156.63 138.979 156.536 139.507 156.747 139.816C157.021 140.207 157.78 140.477 158.214 140.661C159.11 141.052 159.908 141.612 160.835 141.921C159.271 143.153 157.315 144.014 155.617 145.05C151.15 147.789 146.596 150.386 142.137 153.132C130.957 160.017 119.675 166.726 108.413 173.454C104.967 175.515 101.458 177.495 98.0431 179.607C92.2341 183.194 86.2607 186.535 80.483 190.169C78.9183 191.143 77.2949 191.988 75.7889 192.997C75.1356 193.428 73.9738 194.433 73.1758 194.484C72.7846 194.511 72.323 194.093 71.9749 193.924C70.903 193.373 69.8821 192.712 68.8102 192.172C66.7526 191.139 64.7694 189.923 62.7665 188.788C60.4625 187.485 58.1232 186.257 55.8348 184.919C51.5318 182.396 47.0333 180.12 42.6716 177.671C36.4518 174.181 30.2595 170.63 23.9849 167.234C20.8555 165.548 17.7808 163.776 14.667 162.071C12.2613 160.752 9.80465 159.512 7.72358 157.689C7.08147 157.076 6.49742 156.404 5.97891 155.683C3.99171 153.175 2.98638 150.261 2.45829 147.139C2.34093 146.431 2.49349 145.692 2.40743 144.98C2.09449 142.347 1.93803 139.679 1.75808 137.023C1.68767 136.01 1.73461 134.966 1.61335 133.956C1.50382 133.045 1.47643 132.145 1.38646 131.218C1.28866 130.201 1.03831 129.172 1.0696 128.151C1.12437 126.422 2.11014 124.552 3.66313 123.735C4.13549 123.472 4.63703 123.266 5.15744 123.121C5.975 122.913 6.83167 123.086 7.65706 123.148C7.65706 124.678 8.04825 126.195 8.20864 127.698C8.31034 128.558 8.24775 129.438 8.35337 130.299C8.74455 133.659 9.17485 137.066 9.57385 140.427C9.66773 141.209 9.64426 142.019 9.7225 142.809C9.84377 144.068 10.1137 145.32 10.2545 146.564C10.5205 148.806 10.4892 151.121 11.5024 153.214C12.3542 154.982 13.6261 156.515 15.2069 157.678C16.6699 158.726 18.3363 159.469 19.901 160.385C24.5951 163.154 29.3089 165.943 34.1243 168.509C35.689 169.343 37.2537 170.25 38.7872 171.162C39.6634 171.686 40.6335 172.48 41.6389 172.695L42.2061 171.787C40.0389 170.798 37.9892 169.362 35.9237 168.173C31.3274 165.529 26.7232 162.833 22.076 160.279C18.4928 158.323 14.2524 156.551 12.5077 152.549C11.9352 151.102 11.5704 149.581 11.4241 148.031C11.3224 147.174 11.4241 146.275 11.2677 145.422C10.9352 143.392 10.8491 141.338 10.5987 139.296C10.188 135.936 9.78117 132.533 9.37826 129.168C9.24526 128.03 9.17094 126.884 9.03794 125.757C9.01818 125.072 8.93701 124.39 8.79541 123.719C9.36808 123.984 9.91651 124.298 10.4345 124.658C11.4241 125.253 12.4451 125.832 13.4543 126.391C17.1393 128.441 20.7538 130.596 24.3839 132.74C34.4334 138.674 44.6783 144.295 54.6965 150.3C58.6083 152.647 62.7548 154.724 66.604 157.193C67.754 157.928 68.951 158.593 70.1598 159.258C70.5744 159.489 71.0008 159.939 71.5133 159.88C71.881 159.841 72.1587 159.52 72.4677 159.348C73.1797 158.937 73.8838 158.515 74.5958 158.092C77.1854 156.555 79.7241 154.896 82.349 153.429C84.9738 151.962 87.6064 150.3 90.1726 148.68C93.611 146.541 97.1786 144.589 100.617 142.441C103.43 140.685 106.399 139.171 109.184 137.383C112.141 135.486 115.173 133.706 118.205 131.942C118.87 131.551 119.593 131.159 120.223 130.702C120.853 130.244 121.565 129.736 122.3 129.626C122.535 129.235 122.91 129.11 123.29 128.867C123.884 128.476 124.491 128.132 125.089 127.752C127.178 126.434 129.33 125.21 131.426 123.907C131.818 123.676 132.209 123.535 132.6 123.293C134.65 121.92 136.84 120.766 138.953 119.487C142.172 117.531 145.407 115.61 148.646 113.693C151.885 111.777 155.007 109.848 158.187 107.927C159.329 107.243 160.432 106.464 161.629 105.878V105.537C160.718 105.08 159.795 104.571 158.891 104.07C158.58 103.823 158.233 103.624 157.862 103.48C157.61 103.452 157.355 103.507 157.136 103.637C156.917 103.767 156.747 103.964 156.65 104.199Z" fill="#3075E9"/>
<path d="M6.98828 121.701C7.37946 122.253 8.50997 122.292 9.1163 122.593C10.8101 123.43 12.4257 124.514 14.0647 125.46C20.3236 129.083 26.5473 132.811 32.8687 136.323C37.2108 138.741 41.4395 141.366 45.7464 143.854C50.6909 146.717 55.6667 149.541 60.6112 152.409C63.1617 153.884 65.6966 155.397 68.2471 156.876C68.9981 157.31 69.7414 157.768 70.512 158.171C70.7887 158.369 71.0988 158.516 71.4274 158.605C71.9633 158.64 72.6752 157.956 73.129 157.713C74.7211 156.86 76.2584 155.859 77.7879 154.905C83.5304 151.329 89.4334 147.985 95.1916 144.444C109.509 135.643 124.084 127.201 138.464 118.486C142.861 115.818 147.363 113.303 151.701 110.545C153.024 109.7 154.416 108.98 155.731 108.127C156.881 107.388 158.191 106.328 159.49 105.905C159.208 105.401 158.633 105.174 158.128 104.912C157.624 104.65 157.107 104.188 156.536 104.169C155.965 104.149 155.41 104.673 154.972 104.951C153.739 105.686 152.499 106.402 151.283 107.161C145.251 110.916 139.058 114.402 133.026 118.161C131.552 119.08 129.983 119.87 128.532 120.833C123.924 123.884 118.967 126.419 114.301 129.349C110.072 132.005 105.671 134.403 101.45 137.067C96.5098 140.196 91.4714 143.185 86.4291 146.13C83.0728 148.086 79.646 150.042 76.3953 152.174C75.5308 152.737 74.6155 153.211 73.7392 153.758C73.3911 153.977 72.9843 154.388 72.5344 154.302C72.0845 154.216 71.486 153.735 71.0518 153.461C70.2108 152.933 69.3424 152.444 68.4818 151.959C65.2585 150.128 62.0625 148.247 58.8626 146.369C48.3477 140.196 37.8067 134.068 27.2397 127.984C23.5313 125.856 19.8385 123.7 16.1615 121.517C15.1874 120.934 14.2056 120.399 13.2276 119.788C12.813 119.522 12.1792 119.065 11.6629 119.1C11.2717 119.131 10.8805 119.456 10.4893 119.64C9.30798 120.266 8.23615 121.189 6.98828 121.701Z" fill="#F6F9FE"/>
<path d="M40.1746 111.813C39.3453 110.839 38.0779 110.37 37.2212 109.427C38.7864 110.098 40.3142 110.852 41.798 111.688C44.2233 112.928 46.7582 114.184 49.0075 115.744C50.4548 116.754 51.8944 117.778 53.3104 118.835C54.1476 119.461 55.0043 120.27 55.9705 120.677C55.2663 120.755 54.7539 120.083 54.0498 120.043C53.7606 120.071 53.4832 120.172 53.2439 120.337C53.8933 120.865 54.746 121.119 55.4971 121.487C56.3186 121.878 57.1049 122.328 57.9342 122.703C58.2237 122.836 59.5302 123.529 59.4402 122.731C59.3933 122.3 58.6891 121.894 58.3801 121.647C57.3083 120.794 56.1973 120 55.1138 119.167C52.4733 117.11 49.7175 115.206 46.8599 113.464C44.6575 112.134 42.2948 111.035 39.9946 109.881C38.4299 109.098 36.8652 108.316 35.3005 107.6C34.9093 107.436 34.0878 106.841 33.6849 107.158C33.1334 107.6 34.6042 108.472 34.8585 108.695C35.9498 109.63 37.1351 110.483 38.3009 111.32C38.9854 111.813 39.3688 112.318 40.1863 111.813H40.1746ZM24.5039 107.725V107.952C25.7674 108.429 27.0075 109.313 28.1732 110.002C29.6167 110.855 31.111 111.617 32.5544 112.474C33.2155 112.865 33.9314 113.186 34.5846 113.597C35.011 113.863 35.4413 114.254 35.9811 114.238C36.3723 114.238 36.7635 113.894 37.1195 113.745V113.519C34.4203 112.13 31.7642 110.608 29.1355 109.094C28.3531 108.637 27.5708 108.152 26.7454 107.737C26.4467 107.529 26.1085 107.386 25.7518 107.314C25.3254 107.299 24.8834 107.604 24.4922 107.725H24.5039Z" fill="#3075E9"/>
<path d="M21.4219 107.952C22.5954 108.891 24.1015 109.517 25.4002 110.237C27.6534 111.5 29.9066 112.76 32.152 114.039C33.2903 114.688 35.0036 115.893 35.8525 114.199C35.359 114.027 34.8937 113.784 34.4716 113.476C33.834 113.104 33.169 112.791 32.5392 112.412C30.7554 111.34 28.9052 110.389 27.1136 109.341C26.6363 109.063 26.1278 108.836 25.6584 108.558C25.2884 108.267 24.882 108.025 24.4496 107.839C24.1719 107.76 23.8628 107.933 23.5773 107.952C22.8653 108.003 22.1377 107.952 21.4219 107.952ZM37.2177 109.427C37.648 110.131 38.5595 110.518 39.1971 111.015C39.4827 111.238 39.8112 111.633 40.1868 111.696C40.5623 111.758 40.8166 111.43 40.9691 111.132C39.6704 110.714 38.5438 109.751 37.2177 109.427Z" fill="#F6F9FE"/>
<path d="M54.3725 119.768V119.428C52.9995 118.9 51.7634 117.617 50.5703 116.764C48.4459 115.276 46.2243 113.931 43.9202 112.739C43.2748 112.399 42.6332 112.058 41.9643 111.734C41.7236 111.571 41.4599 111.446 41.182 111.362C40.869 111.323 40.6304 111.542 40.3722 111.679C39.7894 112 39.2456 112.379 38.6706 112.704C37.4344 113.4 36.257 114.171 35.0444 114.894C34.2972 115.34 33.4483 115.7 32.8107 116.307C32.4274 116.653 32.1674 117.115 32.07 117.622C31.9726 118.13 32.0431 118.655 32.2709 119.119C33.0258 120.574 34.8605 121.095 36.1827 121.893C37.2036 122.511 38.2872 123.019 39.3121 123.59C40.1688 124.131 41.1008 124.542 42.0778 124.811C45.7197 125.57 48.8843 123.078 51.7986 121.29C52.6435 120.77 53.4767 120.121 54.3725 119.768Z" fill="#FF9603"/>
<path d="M155.508 115.223V116.244C155.577 116.082 155.613 115.909 155.613 115.733C155.613 115.558 155.577 115.384 155.508 115.223Z" fill="#3075E9"/>
<path d="M54.0312 119.77C54.3716 120.313 55.3378 120.724 55.9637 120.791C55.5725 120.349 55.0053 120.098 54.5985 119.656L54.0312 119.77Z" fill="#F6F9FE"/>
<path d="M155.745 120.791V121.832C155.815 121.67 155.851 121.495 155.851 121.319C155.851 121.143 155.815 120.969 155.745 120.807V120.791ZM22.6733 138.535C22.2508 137.667 21.2103 137.361 20.6274 136.603C21.9613 137.44 23.5221 138.003 24.9304 138.746C28.451 140.604 31.8856 142.529 35.0815 144.896C35.9812 145.561 36.8927 146.198 37.7768 146.879C38.2124 147.146 38.6076 147.474 38.9503 147.853C37.9958 147.489 36.5406 146.214 35.6526 147.172C37.4521 148.045 39.2358 148.964 41.0744 149.754C41.3912 149.887 42.6391 150.767 42.8386 150.09C42.9755 149.644 42.2519 149.253 41.978 149.022C40.9258 148.131 39.7405 147.415 38.6921 146.527C37.4661 145.54 36.189 144.618 34.8664 143.765C32.4961 142.078 30.0244 140.537 27.4653 139.153C26.1509 138.468 24.7818 137.886 23.483 137.166C21.9926 136.337 20.3966 135.636 18.8358 134.928C18.4446 134.748 17.6114 134.103 17.1616 134.291C16.3792 134.631 17.8422 135.578 18.0809 135.777C18.9141 136.497 19.802 137.166 20.6978 137.807C21.3824 138.304 21.7462 138.738 22.6733 138.519V138.535Z" fill="#3075E9"/>
<path d="M20.6289 136.586C21.0201 137.298 22.7335 138.827 23.3672 137.838C22.4283 137.478 21.5404 136.985 20.6289 136.586Z" fill="#F6F9FE"/>
<path d="M36.877 146.131C34.3382 144.394 31.9521 142.559 29.2607 141.045C27.9503 140.31 26.6164 139.625 25.302 138.894C24.7896 138.608 24.0737 138.049 23.4673 138.053C23.1257 138.104 22.8019 138.238 22.5246 138.444C21.9144 138.784 21.3511 139.164 20.7291 139.527C19.626 140.189 18.5346 140.877 17.4119 141.511C16.7195 141.902 15.812 142.293 15.2487 142.86C14.9018 143.226 14.6573 143.677 14.5399 144.167C14.4225 144.658 14.4362 145.17 14.5798 145.653C14.9318 146.655 15.8667 147.12 16.7469 147.586C17.807 148.149 18.8515 148.759 19.935 149.264C21.4997 150.019 22.9002 151.142 24.6292 151.537C27.7938 152.268 30.5868 150.101 33.1256 148.564C33.908 148.079 34.7177 147.598 35.5235 147.132C36.0243 146.866 36.5641 146.643 36.877 146.131Z" fill="#FF9603"/>
<path d="M36.4219 146.588C37.1522 147.187 38.0078 147.613 38.9254 147.836C38.6633 147.316 38.1431 147.054 37.6737 146.721C37.4781 146.569 37.259 146.33 36.9891 146.307C36.7757 146.34 36.5777 146.439 36.4219 146.588ZM38.9254 147.836C39.0241 147.932 39.1394 148.009 39.2658 148.063C39.1523 147.864 39.1602 147.883 38.9372 147.836H38.9254Z" fill="#F6F9FE"/>
<path d="M42.668 162.951C42.6954 163.734 43.2273 164.07 43.8141 164.516C44.9563 165.412 46.1182 166.315 47.2956 167.168C47.9763 167.661 48.4105 168.123 49.2515 167.821C49.0044 167.439 48.6724 167.119 48.2814 166.886C47.6359 166.374 46.9514 165.736 46.1847 165.435C46.791 165.408 47.3582 165.826 47.8863 166.085C49.1224 166.691 50.382 167.258 51.5908 167.931C52.9951 168.713 54.4464 169.39 55.8234 170.208C58.0609 171.538 60.1263 173.094 62.227 174.624C63.2418 175.298 64.221 176.024 65.1608 176.799C64.5662 176.564 63.9873 176.103 63.3418 175.985C63.1149 175.946 62.5907 175.985 62.6533 176.333C62.7238 176.752 63.7799 177.022 64.1203 177.174C64.9026 177.527 65.7163 177.898 66.4673 178.293C67.1441 178.645 67.7817 179.029 68.5641 179.076C68.5367 178.219 67.903 177.926 67.2966 177.417C66.0018 176.326 64.5897 175.363 63.2401 174.334C58.5929 170.79 53.5975 167.962 48.3401 165.42C47.2057 164.872 46.0516 164.363 44.929 163.796C44.2092 163.44 43.509 162.971 42.668 162.951Z" fill="#3075E9"/>
<path d="M46.1172 165.185C46.1172 165.185 46.1172 165.31 46.1563 165.259C46.1954 165.208 46.1563 165.134 46.1172 165.185ZM46.1955 165.338C46.7235 165.854 47.369 166.21 47.9401 166.675C48.3 166.973 48.7968 167.497 49.2662 167.595C49.5798 167.596 49.8893 167.524 50.1698 167.383C49.8373 166.879 49.1332 166.628 48.6051 166.39C47.8071 166.034 47.0482 165.471 46.1955 165.338Z" fill="#F6F9FE"/>
<path d="M50.1663 167.156C49.427 167.829 48.3239 168.31 47.4516 168.815C46.3406 169.456 45.2727 170.192 44.15 170.818C43.1251 171.389 41.8498 171.909 41.4117 173.063C40.2929 175.903 43.9544 176.944 45.7499 178.035C47.6511 179.209 49.8612 180.66 52.1183 180.887C54.3754 181.114 56.0927 180.104 57.9665 178.978C59.8402 177.851 61.671 176.67 63.5956 175.676C62.9697 174.741 61.6396 174.158 60.7673 173.466C58.6132 171.822 56.3261 170.361 53.9295 169.096C52.6816 168.435 51.3516 167.884 50.1663 167.156Z" fill="#FF9603"/>
<path d="M63.2383 176.02C63.9189 176.192 64.4861 176.626 65.1707 176.802C64.803 176.348 63.7273 175.265 63.2383 176.02Z" fill="#F6F9FE"/>
<path d="M56.3061 179.881C55.9958 180.12 55.6517 180.311 55.2852 180.448C55.7741 181.015 56.5643 181.379 57.2136 181.743C58.2424 182.314 59.2634 182.916 60.2844 183.488C64.3566 185.835 68.5618 187.998 72.5557 190.451C72.7704 190.123 72.9613 189.781 73.1269 189.426C71.6521 188.757 70.2947 187.794 68.9021 186.981C66.5003 185.58 64.0358 184.286 61.6301 182.889C60.5543 182.263 59.4864 181.637 58.3989 181.035C57.773 180.683 57.0415 180.393 56.533 179.861L56.3061 179.881Z" fill="#3075E9"/>
<path d="M72.556 190.189L71.5898 160.099L155.846 109.445L156.48 139.961L72.556 190.189Z" fill="#D7E6FF"/>
<path d="M73.3555 135.45L73.6997 120.362L159.74 68.6875V83.3724L73.3555 135.45Z" fill="#D7E6FF"/>
<path d="M74.3789 105.484C58.763 97.5742 43.1745 89.7819 27.5586 81.8723C27.8309 81.8951 28.1049 81.8599 28.3625 81.7688C28.6201 81.6778 28.8554 81.533 29.0529 81.3442C29.534 80.863 29.534 80.421 29.6357 79.6699L32.4444 81.3872L73.3149 102.002C74.0669 103.229 75.1788 104.193 76.4991 104.764C77.8503 105.274 79.2879 105.516 80.7317 105.476C79.8289 105.917 78.8505 106.183 77.8487 106.258C76.6448 106.302 75.4498 106.036 74.3789 105.484Z" fill="#D7E6FF"/>
<path d="M113.258 64.1312L85.3867 50.0487C85.634 49.7657 85.8216 49.4358 85.9383 49.0786C86.0606 48.5213 86.1157 47.9513 86.1026 47.3809L115.797 62.5508L113.258 64.1312Z" fill="#D7E6FF"/>
<path d="M98.1797 95.2307C98.8994 94.5071 99.4919 93.6674 99.9322 92.7467C100.191 92.1405 100.361 91.5002 100.437 90.8455L109.911 85.4512C110.464 85.6276 111.031 85.7584 111.605 85.8424C112.577 85.9872 113.563 86.02 114.543 85.9401C109.27 88.9444 103.476 92.2108 98.1797 95.2307Z" fill="#D7E6FF"/>
<path d="M116.309 65.8635L118.804 64.2988L130.759 70.5577C130.734 71.0136 130.632 71.4621 130.458 71.8838C130.318 72.2304 130.133 72.5567 129.906 72.8539C125.357 70.4873 120.858 68.238 116.309 65.8635Z" fill="#D7E6FF"/>
</svg>
