<svg width="29" height="8" viewBox="0 0 29 8" fill="none" xmlns="http://www.w3.org/2000/svg">
<path d="M1.36816 5.22485V7.86646H0.132812V0.75708H2.85254C3.64681 0.75708 4.27669 0.963786 4.74219 1.3772C5.21094 1.79061 5.44531 2.33748 5.44531 3.01782C5.44531 3.71444 5.21582 4.25643 4.75684 4.6438C4.30111 5.03117 3.66146 5.22485 2.83789 5.22485H1.36816ZM1.36816 4.23364H2.85254C3.29199 4.23364 3.62728 4.1311 3.8584 3.92603C4.08952 3.71769 4.20508 3.41821 4.20508 3.02759C4.20508 2.64347 4.08789 2.33748 3.85352 2.10962C3.61914 1.8785 3.29688 1.75968 2.88672 1.75317H1.36816V4.23364ZM9.18066 3.66724C9.02441 3.64119 8.86328 3.62817 8.69727 3.62817C8.15365 3.62817 7.78743 3.83651 7.59863 4.25317V7.86646H6.41211V2.58325H7.54492L7.57422 3.17407C7.86068 2.71509 8.25781 2.4856 8.76562 2.4856C8.9349 2.4856 9.07487 2.50838 9.18555 2.55396L9.18066 3.66724ZM9.53223 5.17603C9.53223 4.65845 9.63477 4.19295 9.83984 3.77954C10.0449 3.36287 10.333 3.04386 10.7041 2.82251C11.0752 2.5979 11.5016 2.4856 11.9834 2.4856C12.6963 2.4856 13.2741 2.71509 13.7168 3.17407C14.1628 3.63306 14.4036 4.24178 14.4395 5.00024L14.4443 5.27856C14.4443 5.7994 14.3434 6.26489 14.1416 6.67505C13.943 7.08521 13.6566 7.40259 13.2822 7.6272C12.9111 7.85181 12.4814 7.96411 11.9932 7.96411C11.2477 7.96411 10.6504 7.71672 10.2012 7.22192C9.75521 6.72388 9.53223 6.06144 9.53223 5.23462V5.17603ZM10.7188 5.27856C10.7188 5.82218 10.8311 6.24862 11.0557 6.55786C11.2803 6.86385 11.5928 7.01685 11.9932 7.01685C12.3936 7.01685 12.7044 6.8606 12.9258 6.5481C13.1504 6.2356 13.2627 5.77824 13.2627 5.17603C13.2627 4.64217 13.1471 4.21899 12.916 3.90649C12.6882 3.59399 12.3773 3.43774 11.9834 3.43774C11.596 3.43774 11.2884 3.59237 11.0605 3.90161C10.8327 4.2076 10.7188 4.66659 10.7188 5.27856ZM15.7627 7.86646V3.46216H14.957V2.58325H15.7627V2.22192C15.766 1.80851 15.8538 1.45369 16.0264 1.15747C16.1989 0.861247 16.443 0.638265 16.7588 0.488525C17.0745 0.338786 17.4538 0.263916 17.8965 0.263916C18.1569 0.263916 18.4059 0.291585 18.6436 0.346924C18.8844 0.402262 19.1335 0.472249 19.3906 0.556885L19.21 1.53833C18.7607 1.38208 18.3506 1.30396 17.9795 1.30396C17.6182 1.30396 17.3561 1.38371 17.1934 1.54321C17.0306 1.69946 16.9492 1.93547 16.9492 2.25122V2.58325H17.9893V3.46216H16.9492V7.86646H15.7627ZM19.9521 7.86646H18.7656V2.58325H19.9521V7.86646ZM22.5303 7.86646H21.3438V0.366455H22.5303V7.86646ZM26.1533 7.96411C25.4014 7.96411 24.791 7.72811 24.3223 7.2561C23.8568 6.78084 23.624 6.14933 23.624 5.36157V5.21509C23.624 4.68774 23.7249 4.21737 23.9268 3.80396C24.1318 3.38729 24.4183 3.0634 24.7861 2.83228C25.154 2.60116 25.5641 2.4856 26.0166 2.4856C26.736 2.4856 27.291 2.71509 27.6816 3.17407C28.0755 3.63306 28.2725 4.28247 28.2725 5.12231V5.60083H24.8203C24.8561 6.03703 25.001 6.38208 25.2549 6.63599C25.512 6.88989 25.8343 7.01685 26.2217 7.01685C26.7653 7.01685 27.208 6.79712 27.5498 6.35767L28.1895 6.96802C27.9779 7.28377 27.6947 7.52954 27.3398 7.70532C26.9883 7.87785 26.5928 7.96411 26.1533 7.96411ZM26.0117 3.43774C25.6862 3.43774 25.4225 3.55168 25.2207 3.77954C25.0221 4.00741 24.8952 4.32479 24.8398 4.73169H27.1006V4.6438C27.0745 4.24666 26.9688 3.94718 26.7832 3.74536C26.5977 3.54028 26.3405 3.43774 26.0117 3.43774Z" fill="#2C73E8"/>
</svg>
