<svg width="30" height="30" viewBox="0 0 30 30" fill="none" xmlns="http://www.w3.org/2000/svg">
<path fill-rule="evenodd" clip-rule="evenodd" d="M15 27C21.6274 27 27 21.6274 27 15C27 8.37258 21.6274 3 15 3C8.37258 3 3 8.37258 3 15C3 21.6274 8.37258 27 15 27ZM15 30C23.2843 30 30 23.2843 30 15C30 6.71573 23.2843 0 15 0C6.71573 0 0 6.71573 0 15C0 23.2843 6.71573 30 15 30ZM15.125 9.375C16.2296 9.375 17.125 10.2704 17.125 11.375V12.875H18.625C19.7296 12.875 20.625 13.7704 20.625 14.875C20.625 15.9796 19.7296 16.875 18.625 16.875H17.125V18.625C17.125 19.7296 16.2296 20.625 15.125 20.625C14.0204 20.625 13.125 19.7296 13.125 18.625V16.875H11.375C10.2704 16.875 9.375 15.9796 9.375 14.875C9.375 13.7704 10.2704 12.875 11.375 12.875H13.125V11.375C13.125 10.2704 14.0204 9.375 15.125 9.375Z" fill="#70A578"/>
</svg>
