<svg width="35" height="40" viewBox="0 0 35 40" fill="none" xmlns="http://www.w3.org/2000/svg">
<path d="M28.7201 21.1386C28.7008 17.8599 30.1863 15.3888 33.1862 13.5668C31.5084 11.163 28.9701 9.84096 25.624 9.58617C22.4559 9.33617 18.9897 11.4322 17.7205 11.4322C16.3792 11.4322 13.312 9.6727 10.8986 9.6727C5.91806 9.74962 0.625 13.6437 0.625 21.5665C0.625 23.9077 1.05287 26.3259 1.9086 28.8162C3.05279 32.0949 7.17763 40.1282 11.4803 39.9984C13.7303 39.9456 15.3215 38.4024 18.2493 38.4024C21.0905 38.4024 22.5616 39.9984 25.0712 39.9984C29.4123 39.9359 33.143 32.6333 34.2295 29.345C28.4076 26.5999 28.7201 21.3069 28.7201 21.1386ZM23.6674 6.47571C26.1048 3.58159 25.8836 0.947079 25.8115 0C23.6578 0.124995 21.1675 1.46629 19.7493 3.11526C18.1868 4.88443 17.2686 7.07184 17.4657 9.53809C19.7925 9.71597 21.9174 8.5189 23.6674 6.47571Z" fill="black"/>
</svg>
