<svg width="20" height="20" viewBox="0 0 20 20" fill="none" xmlns="http://www.w3.org/2000/svg">
<path d="M16.0475 10.5693C16.0379 8.92994 16.7807 7.69441 18.2806 6.78339C17.4417 5.58151 16.1725 4.92048 14.4995 4.79308C12.9154 4.66809 11.1823 5.71612 10.5477 5.71612C9.8771 5.71612 8.3435 4.83635 7.13682 4.83635C4.64653 4.87481 2 6.82185 2 10.7832C2 11.9539 2.21393 13.163 2.6418 14.4081C3.21389 16.0475 5.27631 20.0641 7.42767 19.9992C8.55263 19.9728 9.34827 19.2012 10.8122 19.2012C12.2328 19.2012 12.9683 19.9992 14.2231 19.9992C16.3937 19.968 18.259 16.3167 18.8022 14.6725C15.8913 13.3 16.0475 10.6534 16.0475 10.5693ZM13.5212 3.23785C14.7399 1.7908 14.6293 0.473539 14.5933 0C13.5164 0.0624976 12.2712 0.733145 11.5621 1.55763C10.7809 2.44221 10.3218 3.53592 10.4203 4.76905C11.5838 4.85798 12.6462 4.25945 13.5212 3.23785Z" fill="#001840"/>
</svg>
