<svg width="18" height="18" viewBox="0 0 18 18" fill="none" xmlns="http://www.w3.org/2000/svg">
<path d="M15.75 2.8125L9 4.8125L2.25 2.8125C1.95172 2.8128 1.66575 2.93142 1.45483 3.14233C1.24392 3.35325 1.1253 3.63922 1.125 3.9375V14.0625C1.1253 14.3608 1.24392 14.6468 1.45483 14.8577C1.66575 15.0686 1.95172 15.1872 2.25 15.1875L9 17.1875L15.75 15.1875C16.0483 15.1872 16.3343 15.0686 16.5452 14.8577C16.7561 14.6468 16.8747 14.3608 16.875 14.0625V3.9375C16.8747 3.63922 16.7561 3.35325 16.5452 3.14233C16.3343 2.93142 16.0483 2.8128 15.75 2.8125ZM2.25 3.9375L8.4375 5.9375V16.0625L2.25 14.0625V3.9375ZM9.5625 16.0625V5.9375L15.75 3.9375V14.0625L9.5625 16.0625Z" fill="#8892A4"/>
</svg>
