<svg width="21" height="21" viewBox="0 0 21 21" fill="none" xmlns="http://www.w3.org/2000/svg">
<path fill-rule="evenodd" clip-rule="evenodd" d="M4.66652 1.76957C6.39323 0.615814 8.4233 0 10.5 0C13.2848 0 15.9555 1.10625 17.9246 3.07538C19.8938 5.04451 21 7.71523 21 10.5C21 12.5767 20.3842 14.6068 19.2304 16.3335C18.0767 18.0602 16.4368 19.406 14.5182 20.2007C12.5996 20.9955 10.4884 21.2034 8.45156 20.7982C6.41476 20.3931 4.54383 19.3931 3.07538 17.9246C1.60693 16.4562 0.606904 14.5852 0.201759 12.5484C-0.203386 10.5116 0.0045495 8.40045 0.79927 6.48182C1.59399 4.5632 2.9398 2.92332 4.66652 1.76957ZM7.99994 6.75839C8.73996 6.26392 9.60999 6 10.5 6C11.6935 6 12.8381 6.47411 13.682 7.31802C14.5259 8.16193 15 9.30653 15 10.5C15 11.39 14.7361 12.26 14.2416 13.0001C13.7471 13.7401 13.0443 14.3169 12.2221 14.6575C11.3998 14.9981 10.495 15.0872 9.6221 14.9135C8.74918 14.7399 7.94736 14.3113 7.31802 13.682C6.68868 13.0526 6.2601 12.2508 6.08647 11.3779C5.91283 10.505 6.00195 9.60019 6.34254 8.77792C6.68314 7.95566 7.25991 7.25285 7.99994 6.75839Z" fill="#2C73E8"/>
</svg>
