<svg width="18" height="18" viewBox="0 0 18 18" fill="none" xmlns="http://www.w3.org/2000/svg">
<path d="M9.0007 3.6675L10.5532 6.80625L10.812 7.36875L11.3745 7.45312L14.8395 7.95375L12.3757 10.3725L11.9538 10.7831L12.0551 11.3456L12.6457 14.7937L9.54633 13.1681L9.0007 12.9375L8.47758 13.2131L5.3782 14.8162L5.9407 11.3681L6.04195 10.8056L5.6257 10.3725L3.13945 7.92562L6.60445 7.425L7.16695 7.34063L7.4257 6.77813L9.0007 3.6675ZM9.0007 1.125L6.44133 6.31125L0.720703 7.13812L4.8607 11.1769L3.88195 16.875L9.0007 14.1862L14.1195 16.875L13.1407 11.1769L17.2807 7.14375L11.5601 6.31125L9.0007 1.125Z" fill="#8892A4"/>
</svg>
