<svg width="78" height="78" viewBox="0 0 78 78" fill="none" xmlns="http://www.w3.org/2000/svg">
<path d="M78 39C78 60.5391 60.5391 78 39 78C17.4609 78 0 60.5391 0 39C0 17.4609 17.4609 0 39 0C60.5391 0 78 17.4609 78 39Z" fill="#F9FAFD"/>
<path fill-rule="evenodd" clip-rule="evenodd" d="M38.8523 52.2955C51.3352 52.2955 61.4545 44.9539 61.4545 35.8977C61.4545 26.8415 51.3352 19.5 38.8523 19.5C26.3694 19.5 16.25 26.8415 16.25 35.8977C16.25 40.9076 19.3468 45.3926 24.2273 48.4004V59.3864L31.6182 51.4376C33.8894 51.9939 36.3223 52.2955 38.8523 52.2955Z" fill="#FFDFAC"/>
<path d="M26.2949 34.5703H29.8404V38.1158H26.2949V34.5703Z" fill="#2C73E8"/>
<path d="M36.9316 34.5703H40.4771V38.1158H36.9316V34.5703Z" fill="#2C73E8"/>
<path d="M47.5684 34.5703H51.1138V38.1158H47.5684V34.5703Z" fill="#2C73E8"/>
</svg>
