<svg width="19" height="18" viewBox="0 0 19 18" fill="none" xmlns="http://www.w3.org/2000/svg">
<path d="M10.6163 8.99999L14.0204 5.78249C14.1695 5.64126 14.2533 5.44971 14.2533 5.24999C14.2533 5.05026 14.1695 4.85871 14.0204 4.71749C13.8714 4.57626 13.6692 4.49692 13.4583 4.49692C13.2475 4.49692 13.0453 4.57626 12.8963 4.71749L9.50001 7.94249L6.10376 4.71749C5.95469 4.57626 5.7525 4.49692 5.54168 4.49692C5.33086 4.49692 5.12867 4.57626 4.9796 4.71749C4.83052 4.85871 4.74677 5.05026 4.74677 5.24999C4.74677 5.44971 4.83052 5.64126 4.9796 5.78249L8.38376 8.99999L4.9796 12.2175C4.90539 12.2872 4.8465 12.3702 4.80631 12.4616C4.76612 12.5529 4.74542 12.651 4.74542 12.75C4.74542 12.849 4.76612 12.947 4.80631 13.0384C4.8465 13.1298 4.90539 13.2128 4.9796 13.2825C5.05319 13.3528 5.14075 13.4086 5.23722 13.4467C5.33369 13.4847 5.43717 13.5043 5.54168 13.5043C5.64619 13.5043 5.74966 13.4847 5.84614 13.4467C5.94261 13.4086 6.03017 13.3528 6.10376 13.2825L9.50001 10.0575L12.8963 13.2825C12.9699 13.3528 13.0574 13.4086 13.1539 13.4467C13.2504 13.4847 13.3538 13.5043 13.4583 13.5043C13.5629 13.5043 13.6663 13.4847 13.7628 13.4467C13.8593 13.4086 13.9468 13.3528 14.0204 13.2825C14.0946 13.2128 14.1535 13.1298 14.1937 13.0384C14.2339 12.947 14.2546 12.849 14.2546 12.75C14.2546 12.651 14.2339 12.5529 14.1937 12.4616C14.1535 12.3702 14.0946 12.2872 14.0204 12.2175L10.6163 8.99999Z" fill="#8F8F8F"/>
</svg>
