<svg width="18" height="18" viewBox="0 0 18 18" fill="none" xmlns="http://www.w3.org/2000/svg">
<path d="M12.6277 2.25C12.0684 2.24953 11.5146 2.36073 10.9988 2.5771C10.483 2.79346 10.0156 3.11063 9.62394 3.51L8.99957 4.14L8.37519 3.51C7.9831 3.11135 7.51558 2.79473 6.99987 2.57861C6.48417 2.36249 5.9306 2.25118 5.37144 2.25118C4.81228 2.25118 4.25872 2.36249 3.74301 2.57861C3.22731 2.79473 2.75978 3.11135 2.36769 3.51C1.57 4.32204 1.12305 5.41483 1.12305 6.55313C1.12305 7.69143 1.57 8.78421 2.36769 9.59625L8.99957 16.3125L15.6314 9.59625C16.4291 8.78421 16.8761 7.69143 16.8761 6.55313C16.8761 5.41483 16.4291 4.32204 15.6314 3.51C15.2395 3.11113 14.772 2.7943 14.2563 2.57797C13.7406 2.36165 13.1869 2.25016 12.6277 2.25Z" fill="#b50033"/>
</svg>
