<svg width="18" height="18" viewBox="0 0 18 18" fill="none" xmlns="http://www.w3.org/2000/svg">
<path d="M14.4563 5.23125L10.5188 1.29375C10.4063 1.18125 10.2937 1.125 10.125 1.125H4.5C3.88125 1.125 3.375 1.63125 3.375 2.25V15.75C3.375 16.3687 3.88125 16.875 4.5 16.875H13.5C14.1187 16.875 14.625 16.3687 14.625 15.75V5.625C14.625 5.45625 14.5688 5.34375 14.4563 5.23125ZM10.125 2.475L13.275 5.625H10.125V2.475ZM13.5 15.75H4.5V2.25H9V5.625C9 6.24375 9.50625 6.75 10.125 6.75H13.5V15.75Z" fill="#6A7587"/>
</svg>
