<svg width="66" height="65" viewBox="0 0 66 65" fill="none" xmlns="http://www.w3.org/2000/svg">
<path d="M57.375 12.1875H8.625C7.54756 12.1875 6.51425 12.6155 5.75238 13.3774C4.99051 14.1392 4.5625 15.1726 4.5625 16.25V48.75C4.5625 49.8274 4.99051 50.8608 5.75238 51.6226C6.51425 52.3845 7.54756 52.8125 8.625 52.8125H57.375C58.4524 52.8125 59.4858 52.3845 60.2476 51.6226C61.0095 50.8608 61.4375 49.8274 61.4375 48.75V16.25C61.4375 15.1726 61.0095 14.1392 60.2476 13.3774C59.4858 12.6155 58.4524 12.1875 57.375 12.1875ZM52.9062 16.25L33 30.0219L13.0938 16.25H52.9062ZM8.625 48.75V18.0984L31.8422 34.1656C32.1822 34.4015 32.5862 34.5279 33 34.5279C33.4138 34.5279 33.8178 34.4015 34.1578 34.1656L57.375 18.0984V48.75H8.625Z" fill="#2C73E8"/>
</svg>
