<svg width="78" height="78" viewBox="0 0 78 78" fill="none" xmlns="http://www.w3.org/2000/svg">
<path d="M78 39C78 60.5391 60.5391 78 39 78C17.4609 78 0 60.5391 0 39C0 17.4609 17.4609 0 39 0C60.5391 0 78 17.4609 78 39Z" fill="#F9FAFD"/>
<path d="M49.8483 17.4297C45.0391 17.4297 40.9035 20.3867 39.1486 24.5871C37.3925 20.3867 33.2551 17.4297 28.4435 17.4297C22.0466 17.4297 16.8418 22.6589 16.8418 29.0868C16.8418 31.5673 17.6389 33.9587 19.1673 36.0291L38.4468 60.2275C38.6176 60.4414 38.8753 60.5661 39.1486 60.5661C39.4219 60.5661 39.6808 60.4408 39.8511 60.2263L59.5477 35.4183C59.5663 35.3942 59.5848 35.3689 59.6016 35.343C60.8141 33.4443 61.4554 31.2806 61.4554 29.0868C61.456 22.6589 56.2482 17.4297 49.8483 17.4297Z" fill="#FFB9C1"/>
<path d="M55.5 26.4531C55.5 28.6623 53.7091 30.4531 51.5 30.4531C49.2909 30.4531 47.5 28.6623 47.5 26.4531C47.5 24.244 49.2909 22.4531 51.5 22.4531C53.7091 22.4531 55.5 24.244 55.5 26.4531Z" fill="#2C73E8"/>
</svg>
