<svg width="14" height="14" viewBox="0 0 14 14" fill="none" xmlns="http://www.w3.org/2000/svg">
<path d="M8.125 13.75H5.875C5.57663 13.75 5.29048 13.6315 5.0795 13.4205C4.86853 13.2095 4.75 12.9234 4.75 12.625V8.35563L0.581875 4.1875C0.370607 3.97749 0.251256 3.69226 0.25 3.39438V1.375C0.25 1.07663 0.368526 0.790483 0.579505 0.579505C0.790483 0.368526 1.07663 0.25 1.375 0.25H12.625C12.9234 0.25 13.2095 0.368526 13.4205 0.579505C13.6315 0.790483 13.75 1.07663 13.75 1.375V3.39438C13.7487 3.69226 13.6294 3.97749 13.4181 4.1875L9.25 8.35563V12.625C9.25 12.9234 9.13147 13.2095 8.9205 13.4205C8.70952 13.6315 8.42337 13.75 8.125 13.75ZM1.375 1.375V3.39438L5.875 7.89437V12.625H8.125V7.89437L12.625 3.39438V1.375H1.375Z" fill="#2C73E8"/>
</svg>
