<svg width="40" height="40" viewBox="0 0 40 40" fill="none" xmlns="http://www.w3.org/2000/svg">
<path d="M30.5252 9.47461H9.47266V30.5271H30.5252V9.47461Z" fill="white"/>
<path d="M30.5247 40.0006L39.9984 30.5269L35.2616 29.7188L30.5247 30.5269L29.6602 34.8597L30.5247 40.0006Z" fill="#EA4335"/>
<path d="M0 30.5269V36.8427C0 38.5875 1.41312 40.0006 3.15781 40.0006H9.47375L10.4464 35.2638L9.47375 30.5269L4.31234 29.7188L0 30.5269Z" fill="#188038"/>
<path d="M39.9984 9.47375V3.15781C39.9984 1.41312 38.5853 0 36.8406 0H30.5247C29.9484 2.34938 29.6602 4.07828 29.6602 5.18687C29.6602 6.29531 29.9484 7.72437 30.5247 9.47375C32.62 10.0737 34.1989 10.3737 35.2616 10.3737C36.3242 10.3737 37.9031 10.0737 39.9984 9.47375Z" fill="#1967D2"/>
<path d="M40.0011 9.47461H30.5273V30.5271H40.0011V9.47461Z" fill="#FBBC04"/>
<path d="M30.5252 30.5254H9.47266V39.9991H30.5252V30.5254Z" fill="#34A853"/>
<path d="M30.5262 0H3.15797C1.41313 0 0 1.41312 0 3.15781V30.5262H9.47375V9.47375H30.5262V0Z" fill="#4285F4"/>
<path d="M13.7931 25.8048C13.0062 25.2733 12.4614 24.497 12.1641 23.4705L13.9905 22.718C14.1561 23.3495 14.4456 23.8391 14.8589 24.1864C15.2694 24.5338 15.7694 24.7048 16.3536 24.7048C16.9509 24.7048 17.4641 24.5233 17.893 24.16C18.322 23.7969 18.5378 23.3337 18.5378 22.7733C18.5378 22.1995 18.3114 21.7311 17.8589 21.368C17.4062 21.0048 16.8378 20.8233 16.1589 20.8233H15.1036V19.0155H16.0509C16.6352 19.0155 17.1272 18.8575 17.5272 18.5416C17.9272 18.2259 18.1272 17.7942 18.1272 17.2442C18.1272 16.7548 17.9483 16.3653 17.5905 16.0733C17.2327 15.7811 16.7798 15.6337 16.2298 15.6337C15.693 15.6337 15.2667 15.7759 14.9509 16.0627C14.6353 16.3503 14.3981 16.7134 14.2614 17.118L12.4536 16.3653C12.693 15.6864 13.1325 15.0864 13.7772 14.568C14.422 14.0495 15.2456 13.7891 16.2456 13.7891C16.9852 13.7891 17.6509 13.9313 18.2405 14.218C18.8298 14.5048 19.293 14.9022 19.6272 15.4075C19.9616 15.9153 20.1272 16.4838 20.1272 17.1153C20.1272 17.76 19.972 18.3048 19.6616 18.7522C19.3509 19.1995 18.9694 19.5416 18.5167 19.7811V19.8889C19.1012 20.1299 19.6089 20.5257 19.9852 21.0338C20.3667 21.5469 20.5589 22.16 20.5589 22.8759C20.5589 23.5916 20.3772 24.2311 20.0141 24.7916C19.6509 25.3522 19.1484 25.7942 18.5114 26.1153C17.872 26.4364 17.1536 26.5997 16.3562 26.5997C15.4325 26.6022 14.5798 26.3364 13.793 25.8048H13.7931ZM25.0114 16.7416L23.0062 18.1916L22.0036 16.6706L25.6009 14.0758H26.9798V26.3153H25.0114V16.7417V16.7416Z" fill="#4285F4"/>
</svg>
