<svg width="18" height="18" viewBox="0 0 18 18" fill="none" xmlns="http://www.w3.org/2000/svg">
<path d="M8.4375 6.1875H9.5625V11.25H8.4375V6.1875Z" fill="#8892A4"/>
<path d="M7.3125 1.125H10.6875V2.25H7.3125V1.125Z" fill="#8892A4"/>
<path d="M15.7491 5.06214L14.9503 4.26901L13.6847 5.53464C12.6487 4.33822 11.1916 3.58694 9.61605 3.43691C8.04054 3.28688 6.4678 3.74962 5.22459 4.72899C3.98138 5.70837 3.1633 7.12907 2.94031 8.69592C2.71733 10.2628 3.10659 11.8553 4.02722 13.1426C4.94784 14.4299 6.32905 15.3131 7.88386 15.6085C9.43868 15.904 11.0476 15.589 12.3762 14.7291C13.7049 13.8692 14.6511 12.5305 15.0184 10.9911C15.3857 9.45164 15.1458 7.82989 14.3485 6.46276L15.7491 5.06214ZM8.99908 14.6246C7.99781 14.6246 7.01903 14.3277 6.18651 13.7715C5.35398 13.2152 4.70511 12.4245 4.32194 11.4995C3.93877 10.5744 3.83852 9.55652 4.03386 8.57449C4.22919 7.59246 4.71135 6.69041 5.41935 5.98241C6.12736 5.27441 7.02941 4.79225 8.01144 4.59691C8.99347 4.40157 10.0114 4.50183 10.9364 4.885C11.8615 5.26817 12.6521 5.91704 13.2084 6.74956C13.7647 7.58209 14.0616 8.56087 14.0616 9.56214C14.0616 10.9048 13.5282 12.1925 12.5788 13.1419C11.6294 14.0913 10.3417 14.6246 8.99908 14.6246Z" fill="#8892A4"/>
</svg>
