<svg width="18" height="19" viewBox="0 0 18 19" fill="none" xmlns="http://www.w3.org/2000/svg">
<path d="M16.875 17.375H15.75V14.5625C15.7491 13.8169 15.4525 13.102 14.9253 12.5747C14.398 12.0475 13.6831 11.7509 12.9375 11.75V10.625C13.9814 10.6262 14.9823 11.0414 15.7204 11.7796C16.4586 12.5177 16.8738 13.5186 16.875 14.5625V17.375Z" fill="#6A7587"/>
<path d="M12.375 17.375H11.25V14.5625C11.2491 13.8169 10.9525 13.102 10.4253 12.5747C9.898 12.0475 9.18315 11.7509 8.4375 11.75H5.0625C4.31685 11.7509 3.602 12.0475 3.07475 12.5747C2.5475 13.102 2.25089 13.8169 2.25 14.5625V17.375H1.125V14.5625C1.12619 13.5186 1.54142 12.5177 2.27958 11.7796C3.01775 11.0414 4.01858 10.6262 5.0625 10.625H8.4375C9.48142 10.6262 10.4823 11.0414 11.2204 11.7796C11.9586 12.5177 12.3738 13.5186 12.375 14.5625V17.375Z" fill="#6A7587"/>
<path d="M11.25 1.625V2.75C11.9959 2.75 12.7113 3.04632 13.2387 3.57376C13.7662 4.10121 14.0625 4.81658 14.0625 5.5625C14.0625 6.30842 13.7662 7.02379 13.2387 7.55124C12.7113 8.07868 11.9959 8.375 11.25 8.375V9.5C12.2943 9.5 13.2958 9.08516 14.0342 8.34673C14.7727 7.60831 15.1875 6.60679 15.1875 5.5625C15.1875 4.51821 14.7727 3.51669 14.0342 2.77827C13.2958 2.03984 12.2943 1.625 11.25 1.625Z" fill="#6A7587"/>
<path d="M6.75 2.75C7.30626 2.75 7.85003 2.91495 8.31254 3.22399C8.77506 3.53303 9.13554 3.97229 9.34841 4.4862C9.56128 5.00012 9.61698 5.56562 9.50846 6.11119C9.39994 6.65676 9.13207 7.1579 8.73874 7.55124C8.3454 7.94457 7.84426 8.21244 7.29869 8.32096C6.75312 8.42948 6.18762 8.37378 5.6737 8.16091C5.15979 7.94804 4.72054 7.58755 4.41149 7.12504C4.10245 6.66253 3.9375 6.11876 3.9375 5.5625C3.9375 4.81658 4.23382 4.10121 4.76126 3.57376C5.28871 3.04632 6.00408 2.75 6.75 2.75ZM6.75 1.625C5.97124 1.625 5.20996 1.85593 4.56244 2.28859C3.91493 2.72125 3.41025 3.3362 3.11223 4.05568C2.81421 4.77517 2.73623 5.56687 2.88816 6.33067C3.04009 7.09447 3.4151 7.79606 3.96577 8.34673C4.51644 8.8974 5.21803 9.27241 5.98183 9.42434C6.74563 9.57627 7.53733 9.49829 8.25682 9.20027C8.9763 8.90225 9.59126 8.39758 10.0239 7.75006C10.4566 7.10254 10.6875 6.34126 10.6875 5.5625C10.6875 4.51821 10.2727 3.51669 9.53423 2.77827C8.79581 2.03984 7.79429 1.625 6.75 1.625Z" fill="#6A7587"/>
</svg>
