<svg width="78" height="78" viewBox="0 0 78 78" fill="none" xmlns="http://www.w3.org/2000/svg">
<path d="M78 39C78 60.5391 60.5391 78 39 78C17.4609 78 0 60.5391 0 39C0 17.4609 17.4609 0 39 0C60.5391 0 78 17.4609 78 39Z" fill="#F9FAFD"/>
<path d="M36.3409 29.25C34.2196 29.25 32.5 30.9696 32.5 33.0909V47.2727C32.5 49.394 34.2196 51.1136 36.3409 51.1136H47.5682L55.3977 58.7955V51.1136H57.9091C60.0304 51.1136 61.75 49.394 61.75 47.2727V33.0909C61.75 30.9696 60.0304 29.25 57.9091 29.25H36.3409Z" fill="#2C73E8"/>
<path d="M19.4991 19.7969C17.3778 19.7969 15.6582 21.5165 15.6582 23.6378V37.8196C15.6582 39.9409 17.3778 41.6605 19.4991 41.6605H22.6014V49.1946L30.2804 41.6605H41.0673C43.1886 41.6605 44.9082 39.9409 44.9082 37.8196V23.6378C44.9082 21.5165 43.1886 19.7969 41.0673 19.7969H19.4991Z" fill="#E7CEFE"/>
</svg>
