<svg width="18" height="18" viewBox="0 0 18 18" fill="none" xmlns="http://www.w3.org/2000/svg">
<path fill-rule="evenodd" clip-rule="evenodd" d="M9.60655 2.0826C9.42807 1.97247 9.20272 1.97247 9.02423 2.0826L2.26335 6.25436C2.05234 6.38455 1.95343 6.63901 2.0211 6.87754C2.08876 7.11607 2.30657 7.28068 2.55451 7.28068H16.0763C16.3242 7.28068 16.542 7.11607 16.6097 6.87754C16.6774 6.63901 16.5784 6.38455 16.3674 6.25436L9.60655 2.0826ZM9.31539 3.20598L14.1218 6.17176H4.50895L9.31539 3.20598ZM2.62621 13.293C2.31999 13.293 2.07175 13.5413 2.07175 13.8475V16.0653C2.07175 16.3715 2.31999 16.6198 2.62621 16.6198H15.9599C16.2661 16.6198 16.5143 16.3715 16.5143 16.0653V13.8475C16.5143 13.5413 16.2661 13.293 15.9599 13.293H2.62621ZM3.18067 15.5109V14.4019H15.4054V15.5109H3.18067ZM4.28318 12.5612L4.28318 7.99297H5.3921V12.5612H4.28318ZM7.29094 8.01054V12.5787H8.39986V8.01054H7.29094ZM10.2987 12.5787V8.01054H11.4076V12.5787H10.2987ZM13.3065 8.01054L13.3065 12.5787H14.4154V8.01054H13.3065Z" fill="#8892A4"/>
</svg>
