<svg width="18" height="18" viewBox="0 0 18 18" fill="none" xmlns="http://www.w3.org/2000/svg">
<path d="M15.8006 4.57667L9.14917 0.639167C9.06438 0.588957 8.96798 0.5625 8.86981 0.5625C8.77164 0.5625 8.67524 0.588957 8.59045 0.639167L1.93899 4.57667C1.8553 4.62622 1.78588 4.69718 1.73764 4.78245C1.6894 4.86772 1.66403 4.96434 1.66406 5.06267V12.9377C1.66403 13.036 1.6894 13.1326 1.73764 13.2179C1.78588 13.3032 1.8553 13.3741 1.93899 13.4237L8.59045 17.3612C8.67524 17.4114 8.77164 17.4378 8.86981 17.4378C8.96798 17.4378 9.06438 17.4114 9.14917 17.3612L15.8006 13.4237C15.8843 13.3741 15.9537 13.3032 16.002 13.2179C16.0502 13.1326 16.0756 13.036 16.0756 12.9377V5.06267C16.0756 4.96434 16.0502 4.86772 16.002 4.78245C15.9537 4.69718 15.8843 4.62622 15.8006 4.57667ZM8.86981 1.77654L14.4216 5.06267L8.86981 8.34879L3.31806 5.06267L8.86981 1.77654ZM2.77264 6.04142L8.31552 9.32248V15.8964L2.77264 12.6148V6.04142ZM9.4241 15.8964V9.32304L14.967 6.04198V12.6148L9.4241 15.8964Z" fill="#8892A4"/>
</svg>
