<svg width="63" height="85" viewBox="0 0 63 85" fill="none" xmlns="http://www.w3.org/2000/svg">
<rect width="63" height="84.9545" fill="#E9EDF3"/>
<path d="M34.8125 40.125C35.3688 40.125 35.9125 39.9601 36.375 39.651C36.8376 39.342 37.198 38.9027 37.4109 38.3888C37.6238 37.8749 37.6795 37.3094 37.571 36.7638C37.4624 36.2182 37.1946 35.7171 36.8012 35.3238C36.4079 34.9304 35.9068 34.6626 35.3612 34.554C34.8156 34.4455 34.2501 34.5012 33.7362 34.7141C33.2223 34.927 32.783 35.2874 32.474 35.75C32.1649 36.2125 32 36.7562 32 37.3125C32 38.0584 32.2963 38.7738 32.8238 39.3012C33.3512 39.8287 34.0666 40.125 34.8125 40.125ZM34.8125 36.375C34.9979 36.375 35.1792 36.43 35.3333 36.533C35.4875 36.636 35.6077 36.7824 35.6786 36.9537C35.7496 37.125 35.7682 37.3135 35.732 37.4954C35.6958 37.6773 35.6065 37.8443 35.4754 37.9754C35.3443 38.1065 35.1773 38.1958 34.9954 38.232C34.8135 38.2682 34.625 38.2496 34.4537 38.1786C34.2824 38.1077 34.136 37.9875 34.033 37.8333C33.93 37.6792 33.875 37.4979 33.875 37.3125C33.875 37.0639 33.9738 36.8254 34.1496 36.6496C34.3254 36.4738 34.5639 36.375 34.8125 36.375Z" fill="#C9CFDA" stroke="#E9EDF3" stroke-width="0.5"/>
<path d="M41.375 30.75H22.625C22.1277 30.75 21.6508 30.9475 21.2992 31.2992C20.9475 31.6508 20.75 32.1277 20.75 32.625V51.375C20.75 51.8723 20.9475 52.3492 21.2992 52.7008C21.6508 53.0525 22.1277 53.25 22.625 53.25H41.375C41.8723 53.25 42.3492 53.0525 42.7008 52.7008C43.0525 52.3492 43.25 51.8723 43.25 51.375V32.625C43.25 32.1277 43.0525 31.6508 42.7008 31.2992C42.3492 30.9475 41.8723 30.75 41.375 30.75ZM41.375 51.375H22.625V45.75L27.3125 41.0625L32.5531 46.3031C32.9044 46.6523 33.3797 46.8484 33.875 46.8484C34.3703 46.8484 34.8456 46.6523 35.1969 46.3031L36.6875 44.8125L41.375 49.5V51.375ZM41.375 46.8469L38.0094 43.4812C37.6581 43.132 37.1828 42.936 36.6875 42.936C36.1922 42.936 35.7169 43.132 35.3656 43.4812L33.875 44.9719L28.6344 39.7312C28.2831 39.382 27.8078 39.186 27.3125 39.186C26.8172 39.186 26.3419 39.382 25.9906 39.7312L22.625 43.0969V32.625H41.375V46.8469Z" fill="#C9CFDA" stroke="#E9EDF3" stroke-width="0.5"/>
</svg>
