<svg width="112" height="32" viewBox="0 0 112 32" fill="none" xmlns="http://www.w3.org/2000/svg">
<path d="M24.2304 9.8438C24.784 11.2213 26.1361 12.1855 27.7117 12.1855C29.7771 12.1855 31.4593 10.5114 31.4593 8.45572C31.4593 6.40009 29.7771 4.72592 27.7117 4.72592C25.6463 4.72592 23.9642 6.40009 23.9642 8.45572C23.9642 8.69943 23.9855 8.93254 24.0281 9.16566L13.584 11.7723L16.3946 6.25175C16.7353 6.3683 17.0973 6.44248 17.4699 6.44248C19.2159 6.44248 20.6319 5.03321 20.6319 3.29546C20.6319 1.55771 19.2159 0.148438 17.4699 0.148438C15.7239 0.148438 14.3079 1.55771 14.3079 3.29546C14.3079 4.40804 14.8828 5.38287 15.7559 5.94446L12.7855 11.7829L9.63418 9.98155C9.78323 9.64248 9.85775 9.26102 9.85775 8.85837C9.85775 7.27956 8.56954 5.99744 6.98323 5.99744C5.39692 5.99744 4.1087 7.27956 4.1087 8.85837C4.1087 10.4372 5.39692 11.7193 6.98323 11.7193C7.92011 11.7193 8.75053 11.2743 9.28285 10.5855L12.3171 12.3127L5.69501 17.6001C5.09882 17.0385 4.30034 16.6888 3.41669 16.6888C1.59615 16.6888 0.126953 18.1511 0.126953 19.963C0.126953 21.7749 1.59615 23.2372 3.41669 23.2372C5.23722 23.2372 6.70642 21.7643 6.70642 19.963C6.70642 19.2955 6.50414 18.6597 6.15281 18.1405L12.5406 13.0438L11.7422 24.318C9.7087 24.3815 8.07981 26.0345 8.07981 28.0796C8.07981 30.1564 9.77258 31.8412 11.8593 31.8412C13.946 31.8412 15.6387 30.1564 15.6387 28.0796C15.6387 26.2041 14.2547 24.6464 12.4448 24.3604L13.254 12.9696L22.5163 20.1643C22.0798 20.8107 21.8349 21.5948 21.8349 22.4319C21.8349 24.6994 23.6874 26.5431 25.9657 26.5431C28.2441 26.5431 30.0965 24.6994 30.0965 22.4319C30.0965 20.1643 28.2441 18.3206 25.9657 18.3206C24.784 18.3206 23.7087 18.8186 22.9635 19.6133L13.733 12.461L24.2304 9.8438Z" fill="#FF9400"/>
<path fill-rule="evenodd" clip-rule="evenodd" d="M105.101 12.2061H103.27V14.7809H105.09V24.6141H108.39V14.7809H110.86V12.1955H108.39V11.316C108.39 10.6803 108.497 10.2564 108.699 10.0339C108.912 9.81141 109.253 9.70545 109.732 9.70545C110.211 9.70545 110.722 9.76902 111.244 9.89618L111.691 7.60743C110.797 7.32134 109.87 7.18359 108.933 7.18359C108.018 7.18359 107.262 7.34253 106.666 7.67101C106.07 7.99949 105.654 8.41273 105.431 8.93194C105.207 9.45114 105.101 10.2247 105.101 11.2737V12.2061ZM39.2012 7.48047V24.6037H42.6825V18.1401H44.9502C46.5259 18.1401 47.7289 18.0553 48.5594 17.8964C49.1662 17.7586 49.7624 17.4937 50.3586 17.0805C50.9442 16.6778 51.4339 16.1162 51.8172 15.3957C52.2004 14.6858 52.3921 13.7957 52.3921 12.7467C52.3921 11.3798 52.0514 10.2672 51.3913 9.40895C50.7206 8.55067 49.9008 7.98908 48.9107 7.73477C48.2719 7.56524 46.8985 7.48047 44.7799 7.48047H39.2012ZM42.6719 15.2474V10.3838H44.354C45.6103 10.3838 46.4407 10.4262 46.8559 10.5003C47.4202 10.6063 47.878 10.8606 48.2506 11.2633C48.6232 11.6765 48.8042 12.1851 48.8042 12.8103C48.8042 13.3189 48.6765 13.7639 48.4103 14.1454C48.1441 14.5268 47.7822 14.8023 47.3244 14.9825C46.8666 15.1626 45.951 15.2474 44.5776 15.2474H42.6719ZM65.7307 21.2126L62.441 20.6616C62.26 21.2868 61.9938 21.7424 61.6425 22.0285C61.2912 22.3146 60.8653 22.4524 60.3436 22.4524C59.5771 22.4524 58.949 22.1769 58.4379 21.6365C57.9269 21.0855 57.6608 20.3332 57.6395 19.3583H65.9117C65.9543 16.8365 65.4433 14.9716 64.368 13.753C63.2927 12.5345 61.8235 11.9199 59.971 11.9199C58.3208 11.9199 56.9474 12.5027 55.8722 13.6683C54.7969 14.8338 54.2539 16.4444 54.2539 18.5001C54.2539 20.2272 54.6691 21.6471 55.4889 22.7808C56.5322 24.1901 58.1292 24.9 60.3011 24.9C61.6744 24.9 62.8136 24.5822 63.7292 23.957C64.6448 23.3212 65.3049 22.41 65.7307 21.2126ZM61.898 15.1729C62.3665 15.6709 62.6113 16.3914 62.6326 17.3451H57.7033C57.6927 16.4444 57.9269 15.7345 58.3954 15.2153C58.8638 14.6961 59.46 14.4312 60.1839 14.4312C60.8547 14.4312 61.4296 14.6749 61.898 15.1729ZM75.8238 20.6616L79.1135 21.2126C78.6877 22.41 78.0276 23.3212 77.112 23.957C76.1964 24.5822 75.0572 24.9 73.6839 24.9C71.512 24.9 69.915 24.1901 68.8717 22.7808C68.0519 21.6471 67.6367 20.2272 67.6367 18.5001C67.6367 16.4444 68.1797 14.8338 69.255 13.6683C70.3303 12.5027 71.7036 11.9199 73.3538 11.9199C75.2063 11.9199 76.6755 12.5345 77.7508 13.753C78.8261 14.9716 79.3371 16.8365 79.2945 19.3583H71.0116C71.0329 20.3332 71.2991 21.0855 71.8101 21.6365C72.3211 22.1769 72.9493 22.4524 73.7158 22.4524C74.2375 22.4524 74.6633 22.3146 75.0147 22.0285C75.366 21.7424 75.6428 21.2868 75.8238 20.6616ZM76.0048 17.3451C75.9835 16.3914 75.7386 15.6709 75.2702 15.1729C74.8017 14.6749 74.2268 14.4312 73.5561 14.4312C72.8322 14.4312 72.236 14.6961 71.7675 15.2153C71.2991 15.7345 71.0649 16.4444 71.0755 17.3451H76.0048ZM81.8281 24.614H85.1285V20.7782C85.1285 18.659 85.2243 17.2815 85.4053 16.614C85.5863 15.9464 85.8418 15.4908 86.1612 15.2365C86.4806 14.9822 86.8745 14.855 87.3323 14.855C87.8114 14.855 88.3331 15.0352 88.8867 15.3954L89.9087 12.5345C89.2167 12.1212 88.4928 11.9199 87.7369 11.9199C87.2045 11.9199 86.7255 12.0577 86.3102 12.3226C85.895 12.5875 85.416 13.1385 84.8943 13.9755V12.206H81.8281V24.614ZM98.5543 20.6616L101.844 21.2126C101.418 22.41 100.758 23.3212 99.8425 23.957C98.9269 24.5822 97.7877 24.9 96.4143 24.9C94.2425 24.9 92.6455 24.1901 91.6022 22.7808C90.7824 21.6471 90.3672 20.2272 90.3672 18.5001C90.3672 16.4444 90.9102 14.8338 91.9854 13.6683C93.0607 12.5027 94.4341 11.9199 96.0843 11.9199C97.9368 11.9199 99.406 12.5345 100.481 13.753C101.557 14.9716 102.068 16.8365 102.025 19.3583H93.7527C93.774 20.3332 94.0402 21.0855 94.5512 21.6365C95.0622 22.1769 95.6904 22.4524 96.4569 22.4524C96.9786 22.4524 97.4044 22.3146 97.7558 22.0285C98.1071 21.7424 98.3733 21.2868 98.5543 20.6616ZM98.7459 17.3451C98.7246 16.3914 98.4797 15.6709 98.0113 15.1729C97.5429 14.6749 96.9679 14.4312 96.2972 14.4312C95.5733 14.4312 94.9771 14.6961 94.5086 15.2153C94.0402 15.7345 93.806 16.4444 93.8166 17.3451H98.7459Z" fill="#FF9400"/>
</svg>
