<svg width="18" height="18" viewBox="0 0 18 18" fill="none" xmlns="http://www.w3.org/2000/svg">
<path d="M13.5 7.375C13.2775 7.375 13.06 7.44098 12.875 7.5646C12.69 7.68821 12.5458 7.86391 12.4606 8.06948C12.3755 8.27505 12.3532 8.50125 12.3966 8.71948C12.44 8.93771 12.5472 9.13816 12.7045 9.29549C12.8618 9.45283 13.0623 9.55998 13.2805 9.60338C13.4988 9.64679 13.725 9.62451 13.9305 9.53936C14.1361 9.45422 14.3118 9.31002 14.4354 9.12502C14.559 8.94001 14.625 8.7225 14.625 8.5C14.625 8.20163 14.5065 7.91548 14.2955 7.70451C14.0845 7.49353 13.7984 7.375 13.5 7.375Z" fill="#8892A4"/>
<path d="M9 10.75C8.55499 10.75 8.11998 10.618 7.74997 10.3708C7.37996 10.1236 7.09157 9.77217 6.92127 9.36104C6.75097 8.94991 6.70642 8.49751 6.79323 8.06105C6.88005 7.62459 7.09434 7.22368 7.40901 6.90901C7.72368 6.59434 8.12459 6.38005 8.56105 6.29323C8.99751 6.20642 9.4499 6.25097 9.86104 6.42127C10.2722 6.59157 10.6236 6.87996 10.8708 7.24997C11.118 7.61998 11.25 8.05499 11.25 8.5C11.2493 9.09651 11.012 9.66837 10.5902 10.0902C10.1684 10.512 9.59651 10.7493 9 10.75ZM9 7.375C8.7775 7.375 8.55999 7.44098 8.37498 7.5646C8.18998 7.68821 8.04579 7.86392 7.96064 8.06948C7.87549 8.27505 7.85321 8.50125 7.89662 8.71948C7.94003 8.93771 8.04717 9.13816 8.20451 9.2955C8.36184 9.45283 8.5623 9.55998 8.78052 9.60338C8.99875 9.64679 9.22495 9.62451 9.43052 9.53937C9.63609 9.45422 9.81179 9.31002 9.9354 9.12502C10.059 8.94001 10.125 8.72251 10.125 8.5C10.1247 8.20172 10.0061 7.91575 9.79517 7.70483C9.58425 7.49392 9.29828 7.3753 9 7.375Z" fill="#8892A4"/>
<path d="M4.5 7.375C4.2775 7.375 4.05999 7.44098 3.87498 7.5646C3.68998 7.68821 3.54578 7.86391 3.46064 8.06948C3.37549 8.27505 3.35321 8.50125 3.39662 8.71948C3.44003 8.93771 3.54717 9.13816 3.70451 9.29549C3.86184 9.45283 4.0623 9.55998 4.28052 9.60338C4.49875 9.64679 4.72495 9.62451 4.93052 9.53936C5.13609 9.45422 5.31179 9.31002 5.4354 9.12502C5.55902 8.94001 5.625 8.7225 5.625 8.5C5.625 8.20163 5.50647 7.91548 5.2955 7.70451C5.08452 7.49353 4.79837 7.375 4.5 7.375Z" fill="#8892A4"/>
<path d="M15.75 13H2.25C1.95186 12.9993 1.66614 12.8805 1.45533 12.6697C1.24451 12.4589 1.12574 12.1731 1.125 11.875V5.125C1.12574 4.82686 1.24451 4.54114 1.45533 4.33033C1.66614 4.11951 1.95186 4.00074 2.25 4H15.75C16.0481 4.00074 16.3339 4.11951 16.5447 4.33033C16.7555 4.54114 16.8743 4.82686 16.875 5.125V11.875C16.8746 12.1732 16.7559 12.4591 16.545 12.67C16.3341 12.8809 16.0482 12.9996 15.75 13ZM15.75 5.125H2.25V11.875H15.75V5.125Z" fill="#8892A4"/>
</svg>
