<svg width="20" height="20" viewBox="0 0 20 20" fill="none" xmlns="http://www.w3.org/2000/svg">
<path d="M10 0C4.47563 0 0 4.47563 0 10C0 15.5244 4.47563 20 10 20C15.5244 20 20 15.5244 20 10C20 4.47563 15.5244 0 10 0ZM6.13937 3.64938C6.57937 3.64938 6.93 4.0075 6.93 4.43687C6.93 4.86688 6.57937 5.2275 6.13937 5.2275C5.93038 5.22618 5.73037 5.14236 5.58288 4.99429C5.43539 4.84621 5.35237 4.64587 5.35187 4.43687C5.35187 4.00125 5.70375 3.64938 6.13937 3.64938ZM5.54 6.17813H6.74187V14.5475H5.54V6.17813ZM8.50937 6.17813H11.7575C14.85 6.17813 16.2106 8.39125 16.2106 10.3675C16.2106 12.5169 14.5312 14.5544 11.7737 14.5544H8.50875L8.50937 6.17813ZM9.71 7.26562V13.47H11.6244C14.3525 13.47 14.9775 11.4 14.9775 10.3675C14.9775 8.68812 13.9069 7.26562 11.5625 7.26562H9.71Z" fill="#A6CE39"/>
</svg>
