<svg width="40" height="40" viewBox="0 0 40 40" fill="none" xmlns="http://www.w3.org/2000/svg">
<path d="M24.7578 8.48242V16.3067L27.495 18.0281C27.5938 18.0499 27.6961 18.0499 27.795 18.0281L39.5635 10.0939C39.5549 9.70878 39.4141 9.3384 39.1646 9.04495C38.9151 8.7515 38.5722 8.55286 38.1935 8.48242H24.7578Z" fill="#0072C6"/>
<path d="M24.7592 19.2235L27.255 20.9377C27.3718 21.0089 27.506 21.0465 27.6428 21.0465C27.7796 21.0465 27.9138 21.0089 28.0307 20.9377C27.6021 21.1963 39.5635 13.2549 39.5635 13.2549V27.6349C39.5947 27.9263 39.5619 28.221 39.4673 28.4983C39.3727 28.7757 39.2186 29.029 39.0159 29.2406C38.8131 29.4522 38.5666 29.6169 38.2935 29.7233C38.0204 29.8296 37.7274 29.875 37.435 29.8563H24.7578V19.2235H24.7592Z" fill="#0072C6"/>
<path d="M11.8383 15.6182C11.4237 15.6162 11.0162 15.7265 10.659 15.9372C10.3019 16.148 10.0085 16.4514 9.80975 16.8154C9.26706 17.7802 9.00667 18.8782 9.05833 19.984C9.00193 21.0874 9.26268 22.184 9.80975 23.144C10.0076 23.4929 10.2939 23.7837 10.6397 23.987C10.9855 24.1904 11.3788 24.2991 11.78 24.3023C12.1811 24.3054 12.5761 24.203 12.9251 24.0052C13.2741 23.8074 13.5649 23.5212 13.7683 23.1754C14.3094 22.2198 14.5648 21.129 14.504 20.0325C14.566 18.9016 14.3191 17.7752 13.7898 16.774C13.6006 16.4219 13.3188 16.1281 12.9749 15.9244C12.631 15.7208 12.238 15.6149 11.8383 15.6182Z" fill="#0072C6"/>
<path d="M0 4.50714V35.1171L23.2857 40V0L0 4.50714ZM15.5829 24.9871C15.1473 25.6012 14.5681 26.0994 13.8958 26.4383C13.2235 26.7772 12.4785 26.9465 11.7257 26.9314C10.9919 26.9445 10.2658 26.7801 9.60921 26.4523C8.95259 26.1245 8.38485 25.6429 7.95429 25.0486C6.93312 23.6229 6.42229 21.8946 6.50429 20.1429C6.41742 18.3052 6.93748 16.49 7.98429 14.9771C8.42538 14.3513 9.01367 13.8436 9.69728 13.4989C10.3809 13.1541 11.1388 12.9827 11.9043 13C12.6328 12.9854 13.3537 13.1498 14.0038 13.4788C14.6539 13.8079 15.2133 14.2915 15.6329 14.8871C16.6438 16.3438 17.146 18.0932 17.0614 19.8643C17.1505 21.6886 16.6303 23.4908 15.5829 24.9871Z" fill="#0072C6"/>
</svg>
