<svg width="22" height="24" viewBox="0 0 22 24" fill="none" xmlns="http://www.w3.org/2000/svg">
<path d="M1 23.9998C0.734784 23.9998 0.48043 23.8945 0.292893 23.7069C0.105357 23.5194 0 23.265 0 22.9998V0.999829C2.97509e-05 0.826058 0.0453407 0.655295 0.131467 0.504369C0.217593 0.353443 0.341561 0.227566 0.491153 0.139143C0.640745 0.0507206 0.810796 0.00280484 0.984546 0.000119442C1.1583 -0.00256596 1.32975 0.0400716 1.482 0.123829L21.482 11.1238C21.6388 11.2102 21.7695 11.337 21.8606 11.4911C21.9517 11.6451 21.9997 11.8208 21.9997 11.9998C21.9997 12.1788 21.9517 12.3545 21.8606 12.5086C21.7695 12.6627 21.6388 12.7895 21.482 12.8758L1.482 23.8758C1.33435 23.9571 1.16855 23.9998 1 23.9998ZM2 2.68983V21.3098L18.925 11.9998L2 2.68983Z" fill="white"/>
</svg>
