<svg width="18" height="18" viewBox="0 0 18 18" fill="none" xmlns="http://www.w3.org/2000/svg">
<path d="M6.55273 4V4.7207C5.52148 5.25977 4.7832 5.82227 4.33789 6.4082C3.89258 6.99414 3.66992 7.63281 3.66992 8.32422C3.66992 8.73438 3.72852 9.01562 3.8457 9.16797C3.95117 9.33203 4.08008 9.41406 4.23242 9.41406C4.38477 9.41406 4.58984 9.37305 4.84766 9.29102C5.10547 9.19727 5.33984 9.15039 5.55078 9.15039C6.03125 9.15039 6.44727 9.33203 6.79883 9.69531C7.16211 10.0469 7.34375 10.4805 7.34375 10.9961C7.34375 11.5586 7.12695 12.0449 6.69336 12.4551C6.25977 12.8535 5.7207 13.0527 5.07617 13.0527C4.29102 13.0527 3.58203 12.7129 2.94922 12.0332C2.31641 11.3535 2 10.5156 2 9.51953C2 8.34766 2.38672 7.25781 3.16016 6.25C3.94531 5.23047 5.07617 4.48047 6.55273 4ZM14.9375 4.05273V4.7207C13.7539 5.40039 12.9746 6.00977 12.5996 6.54883C12.2246 7.08789 12.0371 7.7207 12.0371 8.44727C12.0371 8.77539 12.1016 9.02148 12.2305 9.18555C12.3594 9.34961 12.4941 9.43164 12.6348 9.43164C12.7637 9.43164 12.957 9.38477 13.2148 9.29102C13.4727 9.19727 13.7305 9.15039 13.9883 9.15039C14.4688 9.15039 14.8848 9.32617 15.2363 9.67773C15.5996 10.0176 15.7812 10.4395 15.7812 10.9434C15.7812 11.5176 15.5527 12.0156 15.0957 12.4375C14.6504 12.8594 14.0996 13.0703 13.4434 13.0703C12.6699 13.0703 11.9727 12.7363 11.3516 12.0684C10.7305 11.4004 10.4199 10.5684 10.4199 9.57227C10.4199 8.3418 10.8125 7.22266 11.5977 6.21484C12.3828 5.19531 13.4961 4.47461 14.9375 4.05273Z" fill="#B5BCC8"/>
</svg>
