<svg width="32" height="32" viewBox="0 0 32 32" fill="none" xmlns="http://www.w3.org/2000/svg">
<path d="M27.4494 15.1105L5.4494 4.11049C5.27697 4.02426 5.08329 3.98971 4.89167 4.011C4.70006 4.03229 4.51869 4.10851 4.3694 4.23049C4.22682 4.34999 4.1204 4.50688 4.06211 4.68354C4.00381 4.8602 3.99594 5.04961 4.0394 5.23049L6.9994 16.0005L3.9994 26.7405C3.95862 26.8916 3.95386 27.0501 3.9855 27.2033C4.01714 27.3565 4.08429 27.5002 4.18156 27.6228C4.27882 27.7453 4.40349 27.8433 4.54553 27.9089C4.68757 27.9745 4.84303 28.0059 4.9994 28.0005C5.15594 27.9996 5.31007 27.9619 5.4494 27.8905L27.4494 16.8905C27.6132 16.8066 27.7507 16.6791 27.8467 16.5221C27.9426 16.365 27.9934 16.1845 27.9934 16.0005C27.9934 15.8165 27.9426 15.636 27.8467 15.4789C27.7507 15.3219 27.6132 15.1944 27.4494 15.1105ZM6.5494 25.1105L8.7594 17.0005H17.9994V15.0005H8.7594L6.5494 6.89049L24.7594 16.0005L6.5494 25.1105Z" fill="#2C73E8"/>
</svg>
