<svg width="18" height="18" viewBox="0 0 18 18" fill="none" xmlns="http://www.w3.org/2000/svg">
<path d="M16.2444 16.875C16.1443 16.8763 16.0457 16.851 15.9586 16.8016C15.8716 16.7521 15.7994 16.6804 15.7494 16.5937C15.0002 15.3175 13.9324 14.2577 12.6505 13.5181C11.3687 12.7786 9.91671 12.3847 8.43686 12.375V15.75C8.4363 15.861 8.40289 15.9694 8.34082 16.0615C8.27876 16.1536 8.19083 16.2253 8.08811 16.2675C7.98567 16.3105 7.87277 16.3223 7.76365 16.3013C7.65453 16.2803 7.55408 16.2274 7.47498 16.1493L0.72498 9.39933C0.672258 9.34704 0.630411 9.28483 0.601854 9.21628C0.573297 9.14773 0.558594 9.07421 0.558594 8.99996C0.558594 8.9257 0.573297 8.85218 0.601854 8.78363C0.630411 8.71509 0.672258 8.65287 0.72498 8.60058L7.47498 1.85058C7.55408 1.77253 7.65453 1.71966 7.76365 1.69863C7.87277 1.67761 7.98567 1.68938 8.08811 1.73246C8.19083 1.77466 8.27876 1.84632 8.34082 1.93841C8.40289 2.0305 8.4363 2.1389 8.43686 2.24996V5.68683C10.764 5.98574 12.9031 7.12062 14.4555 8.87995C16.0078 10.6393 16.8675 12.9031 16.8744 15.2493C16.873 15.6255 16.8486 16.0012 16.8012 16.3743C16.7872 16.4914 16.7367 16.601 16.657 16.6878C16.5773 16.7746 16.4723 16.8342 16.3569 16.8581L16.2444 16.875ZM8.15561 11.25C9.59021 11.2294 11.0122 11.5205 12.3233 12.1032C13.6344 12.6859 14.8033 13.5463 15.7494 14.625C15.5801 12.5844 14.6894 10.6709 13.2369 9.22776C11.7845 7.78457 9.86531 6.90611 7.82373 6.74996C7.68349 6.73728 7.5531 6.67247 7.45832 6.56832C7.36355 6.46418 7.31128 6.32827 7.31186 6.18746V3.60558L1.91748 8.99996L7.31186 14.3943V11.8125C7.31186 11.6633 7.37112 11.5202 7.47661 11.4147C7.5821 11.3092 7.72517 11.25 7.87436 11.25H8.17811H8.15561Z" fill="#8892A4"/>
</svg>
