<svg width="78" height="78" viewBox="0 0 78 78" fill="none" xmlns="http://www.w3.org/2000/svg">
<path d="M78 39C78 60.5391 60.5391 78 39 78C17.4609 78 0 60.5391 0 39C0 17.4609 17.4609 0 39 0C60.5391 0 78 17.4609 78 39Z" fill="#F9FAFD"/>
<path d="M18.0234 16.2504C18.0234 14.945 19.0817 13.8867 20.3871 13.8867H55.5462C56.8516 13.8867 57.9098 14.945 57.9098 16.2504V61.7504C57.9098 63.0558 56.8516 64.114 55.5462 64.114H20.3871C19.0817 64.114 18.0234 63.0558 18.0234 61.7504V16.2504Z" fill="#A5E3FF"/>
<path fill-rule="evenodd" clip-rule="evenodd" d="M26.5918 22.1598C26.5918 21.6703 26.9886 21.2734 27.4782 21.2734H48.4554C48.945 21.2734 49.3418 21.6703 49.3418 22.1598C49.3418 22.6493 48.945 23.0462 48.4554 23.0462H27.4782C26.9886 23.0462 26.5918 22.6493 26.5918 22.1598Z" fill="white"/>
<path fill-rule="evenodd" clip-rule="evenodd" d="M26.5918 29.5465C26.5918 29.057 26.9886 28.6602 27.4782 28.6602H48.4554C48.945 28.6602 49.3418 29.057 49.3418 29.5465C49.3418 30.036 48.945 30.4329 48.4554 30.4329H27.4782C26.9886 30.4329 26.5918 30.036 26.5918 29.5465Z" fill="white"/>
<path fill-rule="evenodd" clip-rule="evenodd" d="M26.5918 36.9332C26.5918 36.4437 26.9886 36.0469 27.4782 36.0469H46.3873C46.8768 36.0469 47.2736 36.4437 47.2736 36.9332C47.2736 37.4228 46.8768 37.8196 46.3873 37.8196H27.4782C26.9886 37.8196 26.5918 37.4228 26.5918 36.9332Z" fill="white"/>
<path fill-rule="evenodd" clip-rule="evenodd" d="M26.5918 44.32C26.5918 43.8304 26.9886 43.4336 27.4782 43.4336H46.3873C46.8768 43.4336 47.2736 43.8304 47.2736 44.32C47.2736 44.8095 46.8768 45.2063 46.3873 45.2063H27.4782C26.9886 45.2063 26.5918 44.8095 26.5918 44.32Z" fill="white"/>
<path fill-rule="evenodd" clip-rule="evenodd" d="M26.5918 51.7028C26.5918 51.2132 26.9886 50.8164 27.4782 50.8164H37.5236C38.0131 50.8164 38.41 51.2132 38.41 51.7028C38.41 52.1923 38.0131 52.5891 37.5236 52.5891H27.4782C26.9886 52.5891 26.5918 52.1923 26.5918 51.7028Z" fill="white"/>
<path d="M42.9863 43.5391L61.3446 24.5014L65.9923 28.9832L47.634 48.0209L42.9863 43.5391Z" fill="#2C73E8"/>
<path d="M43.0915 43.3796L38.5317 52.4889L47.6647 47.9543L43.0915 43.3796Z" fill="#FDE4BD"/>
<path d="M39.5776 50.3986L38.5329 52.4873L40.6219 51.4428L39.5776 50.3986Z" fill="#2C73E8"/>
</svg>
