<svg width="21" height="21" viewBox="0 0 21 21" fill="none" xmlns="http://www.w3.org/2000/svg">
<path d="M20.7495 19.6895L15.0855 14.0255C16.4466 12.3914 17.1253 10.2956 16.9805 8.17389C16.8356 6.05219 15.8784 4.06801 14.3079 2.6341C12.7374 1.2002 10.6745 0.42697 8.54844 0.475279C6.42236 0.523588 4.39674 1.38971 2.89298 2.89347C1.38922 4.39723 0.5231 6.42284 0.474791 8.54893C0.426482 10.675 1.19971 12.7379 2.63361 14.3084C4.06752 15.8789 6.0517 16.8361 8.1734 16.981C10.2951 17.1258 12.391 16.4471 14.025 15.086L19.689 20.75L20.7495 19.6895ZM1.99948 8.74996C1.99948 7.41494 2.39536 6.1099 3.13706 4.99987C3.87876 3.88983 4.93296 3.02467 6.16636 2.51378C7.39976 2.00289 8.75696 1.86921 10.0663 2.12966C11.3757 2.39011 12.5784 3.03299 13.5224 3.97699C14.4665 4.921 15.1093 6.12373 15.3698 7.4331C15.6302 8.74248 15.4966 10.0997 14.9857 11.3331C14.4748 12.5665 13.6096 13.6207 12.4996 14.3624C11.3895 15.1041 10.0845 15.5 8.74948 15.5C6.95987 15.498 5.24414 14.7862 3.9787 13.5207C2.71326 12.2553 2.00146 10.5396 1.99948 8.74996Z" fill="#2C73E8"/>
</svg>
