<svg width="21" height="21" viewBox="0 0 21 21" fill="none" xmlns="http://www.w3.org/2000/svg">
<path d="M20.7495 19.6893L15.0855 14.0253C16.4466 12.3913 17.1253 10.2955 16.9805 8.17377C16.8356 6.05207 15.8784 4.06789 14.3079 2.63398C12.7374 1.20007 10.6745 0.426848 8.54844 0.475157C6.42236 0.523466 4.39674 1.38959 2.89298 2.89335C1.38922 4.39711 0.5231 6.42272 0.474791 8.54881C0.426482 10.6749 1.19971 12.7378 2.63361 14.3083C4.06752 15.8788 6.0517 16.836 8.1734 16.9808C10.2951 17.1257 12.391 16.4469 14.025 15.0858L19.689 20.7498L20.7495 19.6893ZM1.99948 8.74984C1.99948 7.41482 2.39536 6.10978 3.13706 4.99974C3.87876 3.88971 4.93296 3.02455 6.16636 2.51366C7.39976 2.00276 8.75696 1.86909 10.0663 2.12954C11.3757 2.38999 12.5784 3.03287 13.5224 3.97687C14.4665 4.92088 15.1093 6.12361 15.3698 7.43298C15.6302 8.74235 15.4966 10.0996 14.9857 11.333C14.4748 12.5664 13.6096 13.6206 12.4996 14.3623C11.3895 15.104 10.0845 15.4998 8.74948 15.4998C6.95987 15.4979 5.24414 14.7861 3.9787 13.5206C2.71326 12.2552 2.00146 10.5394 1.99948 8.74984Z" fill="#001840"/>
</svg>
