<svg width="18" height="18" viewBox="0 0 18 18" fill="none" xmlns="http://www.w3.org/2000/svg">
<path d="M16.3131 15.5167L12.0651 11.2687C13.0859 10.0432 13.595 8.47133 13.4863 6.88005C13.3777 5.28878 12.6598 3.80064 11.4819 2.72521C10.304 1.64978 8.75688 1.06986 7.16231 1.10609C5.56774 1.14232 4.04853 1.79192 2.92071 2.91974C1.79289 4.04756 1.1433 5.56677 1.10707 7.16133C1.07084 8.7559 1.65076 10.303 2.72619 11.4809C3.80162 12.6588 5.28976 13.3767 6.88103 13.4854C8.4723 13.594 10.0442 13.0849 11.2697 12.0641L15.5177 16.3121L16.3131 15.5167ZM2.25058 7.31211C2.25058 6.31084 2.54749 5.33206 3.10377 4.49953C3.66004 3.66701 4.4507 3.01814 5.37575 2.63497C6.3008 2.2518 7.3187 2.15154 8.30073 2.34688C9.28276 2.54222 10.1848 3.02438 10.8928 3.73238C11.6008 4.44038 12.083 5.34243 12.2783 6.32446C12.4736 7.30649 12.3734 8.32439 11.9902 9.24944C11.6071 10.1745 10.9582 10.9651 10.1257 11.5214C9.29313 12.0777 8.31435 12.3746 7.31308 12.3746C5.97088 12.3731 4.68408 11.8393 3.735 10.8902C2.78592 9.94111 2.25207 8.65431 2.25058 7.31211Z" fill="#8892A4"/>
</svg>
