<svg width="32" height="32" viewBox="0 0 32 32" fill="none" xmlns="http://www.w3.org/2000/svg">
<path d="M27.4494 15.11L5.4494 4.11001C5.27697 4.02377 5.08329 3.98922 4.89167 4.01051C4.70006 4.0318 4.51869 4.10803 4.3694 4.23001C4.22682 4.3495 4.1204 4.50639 4.06211 4.68305C4.00381 4.85971 3.99594 5.04912 4.0394 5.23001L6.9994 16L3.9994 26.74C3.95862 26.8911 3.95386 27.0496 3.9855 27.2028C4.01714 27.356 4.08429 27.4997 4.18156 27.6223C4.27882 27.7448 4.40349 27.8428 4.54553 27.9084C4.68757 27.9741 4.84303 28.0054 4.9994 28C5.15594 27.9991 5.31007 27.9614 5.4494 27.89L27.4494 16.89C27.6132 16.8061 27.7507 16.6786 27.8467 16.5216C27.9426 16.3645 27.9934 16.1841 27.9934 16C27.9934 15.816 27.9426 15.6355 27.8467 15.4785C27.7507 15.3214 27.6132 15.1939 27.4494 15.11ZM6.5494 25.11L8.7594 17H17.9994V15H8.7594L6.5494 6.89001L24.7594 16L6.5494 25.11Z" fill="#B5BCC8"/>
</svg>
