<svg width="24" height="24" viewBox="0 0 24 24" fill="none" xmlns="http://www.w3.org/2000/svg">
<path d="M20.249 12.5705V12.0005V11.423L21.689 10.163C21.9544 9.92909 22.1286 9.60882 22.1808 9.25885C22.2329 8.90888 22.1597 8.55174 21.974 8.25055L20.204 5.25055C20.0724 5.02275 19.8833 4.83353 19.6556 4.7019C19.4279 4.57026 19.1695 4.50082 18.9065 4.50055C18.7435 4.4993 18.5813 4.52463 18.4265 4.57555L16.604 5.19055C16.2893 4.98146 15.9611 4.79354 15.6215 4.62805L15.239 2.73805C15.1704 2.39275 14.9825 2.08258 14.7083 1.86183C14.4341 1.64107 14.0909 1.5238 13.739 1.53055H10.229C9.87699 1.5238 9.53386 1.64107 9.25963 1.86183C8.9854 2.08258 8.79755 2.39275 8.72897 2.73805L8.34647 4.62805C8.00442 4.7935 7.6737 4.98141 7.35647 5.19055L5.57147 4.54555C5.41494 4.50477 5.25285 4.48957 5.09147 4.50055C4.82842 4.50082 4.57008 4.57026 4.34234 4.7019C4.11461 4.83353 3.92549 5.02275 3.79397 5.25055L2.02397 8.25055C1.84891 8.55129 1.78386 8.90354 1.83996 9.24697C1.89605 9.5904 2.06981 9.90364 2.33147 10.133L3.74897 11.4305V12.578L2.33147 13.8381C2.06242 14.069 1.88391 14.3879 1.82762 14.738C1.77133 15.0881 1.84089 15.4469 2.02397 15.7506L3.79397 18.7505C3.92549 18.9784 4.11461 19.1676 4.34234 19.2992C4.57008 19.4308 4.82842 19.5003 5.09147 19.5005C5.25448 19.5018 5.41661 19.4765 5.57147 19.4256L7.39397 18.8106C7.70862 19.0196 8.03685 19.2076 8.37647 19.3731L8.75897 21.2631C8.82755 21.6083 9.0154 21.9185 9.28963 22.1393C9.56386 22.36 9.90699 22.4773 10.259 22.4706H13.799C14.1509 22.4773 14.4941 22.36 14.7683 22.1393C15.0425 21.9185 15.2304 21.6083 15.299 21.2631L15.6815 19.3731C16.0235 19.2076 16.3542 19.0197 16.6715 18.8106L18.4865 19.4256C18.6413 19.4765 18.8035 19.5018 18.9665 19.5005C19.2295 19.5003 19.4879 19.4308 19.7156 19.2992C19.9433 19.1676 20.1324 18.9784 20.264 18.7505L21.974 15.7506C22.149 15.4498 22.2141 15.0976 22.158 14.7541C22.1019 14.4107 21.9281 14.0975 21.6665 13.868L20.249 12.5705ZM18.9065 18.0005L16.334 17.1306C15.7318 17.6406 15.0435 18.0394 14.3015 18.3081L13.769 21.0006H10.229L9.69647 18.3381C8.96029 18.0617 8.27576 17.6637 7.67147 17.1605L5.09147 18.0005L3.32147 15.0006L5.36147 13.2006C5.22279 12.4242 5.22279 11.6294 5.36147 10.8531L3.32147 9.00055L5.09147 6.00055L7.66397 6.87055C8.26617 6.36047 8.95442 5.96174 9.69647 5.69305L10.229 3.00055H13.769L14.3015 5.66305C15.0377 5.93937 15.7222 6.33741 16.3265 6.84055L18.9065 6.00055L20.6765 9.00055L18.6365 10.8005C18.7751 11.5769 18.7751 12.3717 18.6365 13.1481L20.6765 15.0006L18.9065 18.0005Z" fill="#001840"/>
<path d="M12 16.5C11.11 16.5 10.24 16.2361 9.49994 15.7416C8.75991 15.2471 8.18314 14.5443 7.84254 13.7221C7.50195 12.8998 7.41283 11.995 7.58647 11.1221C7.7601 10.2492 8.18868 9.44736 8.81802 8.81802C9.44736 8.18868 10.2492 7.7601 11.1221 7.58647C11.995 7.41283 12.8998 7.50195 13.7221 7.84254C14.5443 8.18314 15.2471 8.75991 15.7416 9.49994C16.2361 10.24 16.5 11.11 16.5 12C16.506 12.5926 16.3937 13.1805 16.1697 13.7292C15.9457 14.2779 15.6145 14.7763 15.1954 15.1954C14.7763 15.6145 14.2779 15.9457 13.7292 16.1697C13.1805 16.3937 12.5926 16.506 12 16.5ZM12 9C11.6035 8.99077 11.2093 9.06205 10.8411 9.20954C10.473 9.35704 10.1386 9.57768 9.85812 9.85812C9.57768 10.1386 9.35704 10.473 9.20954 10.8411C9.06205 11.2093 8.99077 11.6035 9 12C8.99077 12.3965 9.06205 12.7907 9.20954 13.1589C9.35704 13.527 9.57768 13.8615 9.85812 14.1419C10.1386 14.4223 10.473 14.643 10.8411 14.7905C11.2093 14.938 11.6035 15.0092 12 15C12.3965 15.0092 12.7907 14.938 13.1589 14.7905C13.527 14.643 13.8615 14.4223 14.1419 14.1419C14.4223 13.8615 14.643 13.527 14.7905 13.1589C14.938 12.7907 15.0092 12.3965 15 12C15.0092 11.6035 14.938 11.2093 14.7905 10.8411C14.643 10.473 14.4223 10.1386 14.1419 9.85812C13.8615 9.57768 13.527 9.35704 13.1589 9.20954C12.7907 9.06205 12.3965 8.99077 12 9Z" fill="#001840"/>
</svg>
