<svg width="24" height="25" viewBox="0 0 24 25" fill="none" xmlns="http://www.w3.org/2000/svg">
<path d="M17.2493 15.4999C16.6879 15.5027 16.1343 15.6316 15.6293 15.8769C15.1244 16.1222 14.681 16.4778 14.3318 16.9174L8.84928 13.4899C9.0491 12.845 9.0491 12.1548 8.84928 11.5099L14.3318 8.08241C14.8882 8.77145 15.6706 9.24129 16.5403 9.40871C17.41 9.57614 18.3109 9.43033 19.0834 8.99713C19.8559 8.56392 20.4502 7.87128 20.7609 7.0419C21.0716 6.21251 21.0787 5.29992 20.781 4.46578C20.4833 3.63165 19.8999 2.9298 19.1343 2.48458C18.3687 2.03936 17.4702 1.8795 16.5979 2.03331C15.7257 2.18713 14.9361 2.64469 14.369 3.32495C13.8018 4.00521 13.4937 4.86425 13.4993 5.74991C13.5028 6.08529 13.5533 6.41853 13.6493 6.73991L8.16678 10.1674C7.68277 9.5581 7.02119 9.11445 6.27375 8.89796C5.52631 8.68147 4.73003 8.70286 3.99529 8.95917C3.26056 9.21548 2.62375 9.69401 2.17315 10.3284C1.72255 10.9629 1.48047 11.7217 1.48047 12.4999C1.48047 13.2781 1.72255 14.037 2.17315 14.6714C2.62375 15.3058 3.26056 15.7843 3.99529 16.0406C4.73003 16.297 5.52631 16.3184 6.27375 16.1019C7.02119 15.8854 7.68277 15.4417 8.16678 14.8324L13.6493 18.2599C13.5533 18.5813 13.5028 18.9145 13.4993 19.2499C13.4993 19.9916 13.7192 20.7166 14.1313 21.3333C14.5433 21.95 15.129 22.4306 15.8142 22.7145C16.4994 22.9983 17.2534 23.0725 17.9809 22.9279C18.7083 22.7832 19.3765 22.426 19.9009 21.9016C20.4254 21.3771 20.7825 20.7089 20.9272 19.9815C21.0719 19.2541 20.9977 18.5001 20.7138 17.8148C20.43 17.1296 19.9494 16.544 19.3327 16.1319C18.716 15.7198 17.991 15.4999 17.2493 15.4999ZM17.2493 3.49991C17.6943 3.49991 18.1293 3.63187 18.4993 3.8791C18.8693 4.12634 19.1577 4.47774 19.328 4.88887C19.4983 5.3 19.5429 5.7524 19.4561 6.18886C19.3692 6.62532 19.1549 7.02623 18.8403 7.3409C18.5256 7.65557 18.1247 7.86986 17.6882 7.95668C17.2518 8.04349 16.7994 7.99894 16.3882 7.82864C15.9771 7.65834 15.6257 7.36995 15.3785 6.99994C15.1312 6.62993 14.9993 6.19492 14.9993 5.74991C14.9993 5.15317 15.2363 4.58088 15.6583 4.15892C16.0803 3.73696 16.6525 3.49991 17.2493 3.49991ZM5.24928 14.7499C4.80428 14.7499 4.36926 14.6179 3.99925 14.3707C3.62924 14.1235 3.34085 13.7721 3.17055 13.3609C3.00026 12.9498 2.9557 12.4974 3.04252 12.061C3.12933 11.6245 3.34363 11.2236 3.65829 10.9089C3.97296 10.5943 4.37387 10.38 4.81033 10.2931C5.24679 10.2063 5.69919 10.2509 6.11032 10.4212C6.52146 10.5915 6.87286 10.8799 7.12009 11.2499C7.36732 11.6199 7.49928 12.0549 7.49928 12.4999C7.49928 13.0966 7.26223 13.6689 6.84027 14.0909C6.41832 14.5129 5.84602 14.7499 5.24928 14.7499ZM17.2493 21.4999C16.8043 21.4999 16.3693 21.3679 15.9993 21.1207C15.6292 20.8735 15.3409 20.5221 15.1706 20.1109C15.0003 19.6998 14.9557 19.2474 15.0425 18.811C15.1293 18.3745 15.3436 17.9736 15.6583 17.6589C15.973 17.3443 16.3739 17.13 16.8103 17.0431C17.2468 16.9563 17.6992 17.0009 18.1103 17.1712C18.5215 17.3415 18.8729 17.6299 19.1201 17.9999C19.3673 18.3699 19.4993 18.8049 19.4993 19.2499C19.4993 19.8466 19.2622 20.4189 18.8403 20.8409C18.4183 21.2629 17.846 21.4999 17.2493 21.4999Z" fill="#001840"/>
</svg>
