<svg width="18" height="18" viewBox="0 0 18 18" fill="none" xmlns="http://www.w3.org/2000/svg">
<path d="M8.875 1C4.52455 1 1 4.52455 1 8.875C1 13.2254 4.52455 16.75 8.875 16.75C13.2254 16.75 16.75 13.2254 16.75 8.875C16.75 4.52455 13.2254 1 8.875 1ZM5.83476 3.87388C6.18126 3.87388 6.45738 4.15591 6.45738 4.49404C6.45738 4.83266 6.18126 5.11666 5.83476 5.11666C5.67018 5.11562 5.51267 5.04961 5.39652 4.933C5.28037 4.81639 5.21499 4.65862 5.2146 4.49404C5.2146 4.15098 5.4917 3.87388 5.83476 3.87388ZM5.36275 5.86527H6.30923V12.4562H5.36275V5.86527ZM7.70113 5.86527H10.259C12.6944 5.86527 13.7659 7.60811 13.7659 9.16441C13.7659 10.857 12.4434 12.4616 10.2718 12.4616H7.70064L7.70113 5.86527ZM8.64663 6.72168V11.6076H10.1542C12.3026 11.6076 12.7948 9.9775 12.7948 9.16441C12.7948 7.8419 11.9517 6.72168 10.1055 6.72168H8.64663Z" fill="#A6CE39"/>
</svg>
