<svg width="18" height="18" viewBox="0 0 18 18" fill="none" xmlns="http://www.w3.org/2000/svg">
<path d="M8.875 1.00098C4.5257 1.00098 1 4.52668 1 8.87598C1 13.2253 4.5257 16.751 8.875 16.751C13.2243 16.751 16.75 13.2253 16.75 8.87598C16.75 4.52668 13.2243 1.00098 8.875 1.00098ZM6.94727 12.14H5.35258V7.00812H6.94727V12.14ZM6.14008 6.37812C5.63641 6.37812 5.31074 6.02129 5.31074 5.57996C5.31074 5.12961 5.64625 4.78344 6.16059 4.78344C6.67492 4.78344 6.98992 5.12961 6.99977 5.57996C6.99977 6.02129 6.67492 6.37812 6.14008 6.37812ZM12.7715 12.14H11.1768V9.29598C11.1768 8.63398 10.9455 8.18445 10.3688 8.18445C9.92828 8.18445 9.6666 8.48879 9.55094 8.78164C9.50828 8.88582 9.49762 9.03348 9.49762 9.18031V12.1392H7.90211V8.64465C7.90211 8.00398 7.8816 7.46832 7.86027 7.0073H9.24578L9.31879 7.72016H9.35078C9.56078 7.38547 10.0751 6.89164 10.9356 6.89164C11.9848 6.89164 12.7715 7.59465 12.7715 9.10566V12.14Z" fill="#0275B4"/>
</svg>
