<svg width="18" height="18" viewBox="0 0 18 18" fill="none" xmlns="http://www.w3.org/2000/svg">
<path fill-rule="evenodd" clip-rule="evenodd" d="M16.8672 9.00977C16.8672 13.3493 13.3571 16.8691 9.02117 16.8847C9.01751 16.8847 9.01385 16.8848 9.01019 16.8848C9.00854 16.8848 9.00689 16.8848 9.00524 16.8848C9.00089 16.8848 8.99654 16.8848 8.99219 16.8848C4.64295 16.8848 1.11719 13.359 1.11719 9.00977C1.11719 4.66052 4.64295 1.13477 8.99219 1.13477C8.99654 1.13477 9.00089 1.13477 9.00524 1.13478C9.00689 1.13477 9.00854 1.13477 9.01019 1.13477C9.01385 1.13477 9.01751 1.13478 9.02118 1.13482C13.3571 1.15044 16.8672 4.67019 16.8672 9.00977ZM8.99219 15.7688C9.12408 15.7688 9.25509 15.765 9.38512 15.7575C9.65391 15.4639 9.98308 14.7473 10.2595 14.1297C10.4842 13.6275 10.6924 13.0393 10.8617 12.3848H7.15862C7.32801 13.0393 7.53619 13.6275 7.76092 14.1297C8.03794 14.7487 8.36802 15.4672 8.63715 15.7596C8.75473 15.7657 8.8731 15.7688 8.99219 15.7688ZM6.91849 11.2508H11.1019C11.2186 10.5499 11.2872 9.79682 11.2872 9.00977C11.2872 8.21597 11.2174 7.45672 11.0989 6.75077H6.9215C6.80294 7.45672 6.73319 8.21597 6.73319 9.00977C6.73319 9.79682 6.80176 10.5499 6.91849 11.2508ZM5.79341 6.75077C5.69147 7.46633 5.63519 8.22463 5.63519 9.00977C5.63519 9.78832 5.69053 10.5405 5.79085 11.2508H2.61356C2.36718 10.5495 2.23319 9.79526 2.23319 9.00977C2.23319 8.21754 2.36949 7.45715 2.61991 6.75077H5.79341ZM7.1633 5.61677C7.33183 4.96948 7.53825 4.38738 7.76092 3.88981C8.03794 3.2708 8.36802 2.55229 8.63715 2.25993C8.75473 2.25385 8.8731 2.25077 8.99219 2.25077C9.12408 2.25077 9.25509 2.25454 9.38512 2.262C9.65391 2.55566 9.98308 3.27225 10.2595 3.88981C10.4821 4.38738 10.6885 4.96948 10.8571 5.61677H7.1633ZM12.227 6.75077C12.3289 7.46633 12.3852 8.22463 12.3852 9.00977C12.3852 9.78832 12.3298 10.5405 12.2295 11.2508H15.3708C15.6172 10.5495 15.7512 9.79526 15.7512 9.00977C15.7512 8.21754 15.6149 7.45715 15.3645 6.75077H12.227ZM14.8391 5.61677H12.0203C11.7379 4.3559 11.3118 3.28049 10.8148 2.49937C12.5269 2.97767 13.9647 4.11317 14.8391 5.61677ZM14.8496 12.3848H12.0243C11.7419 13.6534 11.3142 14.7353 10.8148 15.5202C12.5337 15.04 13.9762 13.8973 14.8496 12.3848ZM6.00009 5.61677H3.14525C4.02711 4.1004 5.48194 2.95841 7.21323 2.48732C6.71297 3.26942 6.28396 4.34941 6.00009 5.61677ZM3.13482 12.3848H5.99607C6.27991 13.6599 6.7106 14.7464 7.21323 15.5322C5.47509 15.0593 4.01561 13.9101 3.13482 12.3848Z" fill="#8892A4"/>
</svg>
