<svg width="24" height="24" viewBox="0 0 24 24" fill="none" xmlns="http://www.w3.org/2000/svg">
<path d="M24 4.97587C23.1169 5.36746 22.1679 5.63212 21.1719 5.75118C22.1887 5.1418 22.9693 4.17684 23.3369 3.02709C22.3704 3.60063 21.3129 4.00474 20.2103 4.22193C19.312 3.26502 18.0324 2.66699 16.6162 2.66699C13.8968 2.66699 11.6921 4.87162 11.6921 7.59074C11.6921 7.97671 11.7357 8.35246 11.8196 8.71293C7.72744 8.50752 4.09931 6.5473 1.67072 3.5683C1.24697 4.29552 1.00416 5.14143 1.00416 6.04368C1.00416 7.75199 1.8735 9.25902 3.19462 10.1421C2.4127 10.1176 1.64798 9.90638 0.964313 9.52612C0.964031 9.54674 0.964031 9.56737 0.964031 9.58809C0.964031 11.9737 2.66128 13.9639 4.91372 14.4162C4.18864 14.6134 3.42809 14.6423 2.69016 14.5006C3.31669 16.4568 5.13516 17.8803 7.28972 17.9201C5.60456 19.2407 3.48141 20.0279 1.17459 20.0279C0.777094 20.0279 0.385219 20.0046 0 19.9591C2.17903 21.3561 4.76719 22.1713 7.54781 22.1713C16.6047 22.1713 21.5573 14.6684 21.5573 8.16177C21.5573 7.94821 21.5526 7.73587 21.543 7.52474C22.507 6.82788 23.339 5.96476 24 4.97587Z" fill="#55ACEE"/>
</svg>
