<?xml version="1.0" encoding="UTF-8"?>
<svg xmlns="http://www.w3.org/2000/svg" xmlns:xlink="http://www.w3.org/1999/xlink" width="18px" height="28px" viewBox="0 0 18 28" version="1.1">
<g id="surface1">
<rect x="0" y="0" width="18" height="28" style="fill:rgb(100%,100%,100%);fill-opacity:1;stroke:none;"/>
<path style="fill:none;stroke-width:104.764;stroke-linecap:butt;stroke-linejoin:miter;stroke:rgb(96.470588%,50.980392%,7.058824%);stroke-opacity:1;stroke-miterlimit:4;" d="M 111.388889 308.175223 L 111.388889 272.460938 C 111.388889 156.808036 205 63.197545 320.555556 63.197545 C 436.111111 63.197545 529.861111 156.808036 529.861111 272.460938 L 529.861111 530.831473 " transform="matrix(0.028125,0,0,0.028,0,0)"/>
<path style="fill:none;stroke-width:104.764;stroke-linecap:butt;stroke-linejoin:miter;stroke:rgb(96.470588%,50.980392%,7.058824%);stroke-opacity:1;stroke-miterlimit:4;" d="M 576.111111 680.664062 C 576.111111 822.126116 461.388889 936.802455 320 936.802455 C 178.611111 936.802455 63.888889 822.126116 63.888889 680.664062 C 63.888889 539.341518 178.611111 424.665179 320 424.665179 C 461.388889 424.665179 576.111111 539.341518 576.111111 680.664062 Z M 576.111111 680.664062 " transform="matrix(0.028125,0,0,0.028,0,0)"/>
<path style=" stroke:none;fill-rule:nonzero;fill:rgb(96.470588%,50.980392%,7.058824%);fill-opacity:1;" d="M 11.460938 19.085938 C 11.460938 20.421875 10.371094 21.507812 9.027344 21.507812 C 7.6875 21.507812 6.597656 20.421875 6.597656 19.085938 C 6.597656 17.75 7.6875 16.667969 9.027344 16.667969 C 10.371094 16.667969 11.460938 17.75 11.460938 19.085938 Z M 11.460938 19.085938 "/>
</g>
</svg>
