<svg width="32" height="32" viewBox="0 0 32 32" fill="none" xmlns="http://www.w3.org/2000/svg">
<path d="M11 18L12.41 19.41L15 16.83V29H17V16.83L19.59 19.41L21 18L16 13L11 18Z" fill="#2C73E8"/>
<path d="M23.5 22H23V20H23.5C24.6935 20.0477 25.857 19.6194 26.7347 18.8093C27.6124 17.9991 28.1323 16.8735 28.18 15.68C28.2277 14.4865 27.7994 13.323 26.9893 12.4453C26.1791 11.5676 25.0535 11.0477 23.86 11H23L22.9 10.18C22.6781 8.49645 21.8519 6.95094 20.5751 5.83138C19.2983 4.71182 17.6581 4.09455 15.96 4.09455C14.2619 4.09455 12.6217 4.71182 11.3449 5.83138C10.0681 6.95094 9.24186 8.49645 9.02 10.18L9 11H8.14C6.94653 11.0477 5.8209 11.5676 5.01074 12.4453C4.20058 13.323 3.77226 14.4865 3.82 15.68C3.86774 16.8735 4.38763 17.9991 5.2653 18.8093C6.14297 19.6194 7.30653 20.0477 8.5 20H9V22H8.5C6.89641 21.9898 5.35317 21.3873 4.16699 20.3081C2.9808 19.2289 2.23542 17.7494 2.07413 16.1539C1.91284 14.5584 2.34704 12.9596 3.29325 11.6649C4.23946 10.3701 5.63088 9.47088 7.2 9.14C7.63171 7.12652 8.74083 5.32197 10.3423 4.02747C11.9438 2.73296 13.9408 2.0268 16 2.0268C18.0592 2.0268 20.0562 2.73296 21.6577 4.02747C23.2592 5.32197 24.3683 7.12652 24.8 9.14C26.3691 9.47088 27.7605 10.3701 28.7067 11.6649C29.653 12.9596 30.0872 14.5584 29.9259 16.1539C29.7646 17.7494 29.0192 19.2289 27.833 20.3081C26.6468 21.3873 25.1036 21.9898 23.5 22Z" fill="#2C73E8"/>
</svg>
