<svg width="18" height="18" viewBox="0 0 18 18" fill="none" xmlns="http://www.w3.org/2000/svg">
<path d="M9 2.25C9.55626 2.25 10.1 2.41495 10.5625 2.72399C11.0251 3.03303 11.3855 3.47229 11.5984 3.9862C11.8113 4.50012 11.867 5.06562 11.7585 5.61119C11.6499 6.15676 11.3821 6.6579 10.9887 7.05124C10.5954 7.44457 10.0943 7.71244 9.54869 7.82096C9.00312 7.92948 8.43762 7.87378 7.9237 7.66091C7.40979 7.44804 6.97053 7.08755 6.66149 6.62504C6.35245 6.16253 6.1875 5.61876 6.1875 5.0625C6.1875 4.31658 6.48382 3.60121 7.01126 3.07376C7.53871 2.54632 8.25408 2.25 9 2.25ZM9 1.125C8.22124 1.125 7.45996 1.35593 6.81244 1.78859C6.16493 2.22125 5.66025 2.8362 5.36223 3.55568C5.06421 4.27517 4.98623 5.06687 5.13816 5.83067C5.29009 6.59447 5.6651 7.29606 6.21577 7.84673C6.76644 8.3974 7.46803 8.77241 8.23183 8.92434C8.99563 9.07627 9.78733 8.99829 10.5068 8.70027C11.2263 8.40225 11.8413 7.89758 12.2739 7.25006C12.7066 6.60254 12.9375 5.84126 12.9375 5.0625C12.9375 4.01821 12.5227 3.01669 11.7842 2.27827C11.0458 1.53984 10.0443 1.125 9 1.125Z" fill="#001840"/>
<path d="M14.625 16.875H13.5V14.0625C13.5 13.6932 13.4273 13.3274 13.2859 12.9862C13.1446 12.645 12.9374 12.3349 12.6762 12.0738C12.4151 11.8126 12.105 11.6054 11.7638 11.4641C11.4226 11.3227 11.0568 11.25 10.6875 11.25H7.3125C6.56658 11.25 5.85121 11.5463 5.32376 12.0738C4.79632 12.6012 4.5 13.3166 4.5 14.0625V16.875H3.375V14.0625C3.375 13.0182 3.78984 12.0167 4.52827 11.2783C5.26669 10.5398 6.26821 10.125 7.3125 10.125H10.6875C11.7318 10.125 12.7333 10.5398 13.4717 11.2783C14.2102 12.0167 14.625 13.0182 14.625 14.0625V16.875Z" fill="#001840"/>
</svg>
