<svg width="18" height="18" viewBox="0 0 18 18" fill="none" xmlns="http://www.w3.org/2000/svg">
<path d="M16.5459 10.6875L15.5813 9.72281C15.691 9.49758 15.7487 9.25054 15.75 9C15.75 8.66625 15.651 8.33998 15.4656 8.06248C15.2802 7.78497 15.0166 7.56868 14.7083 7.44095C14.3999 7.31323 14.0606 7.27981 13.7333 7.34493C13.4059 7.41004 13.1053 7.57076 12.8693 7.80676C12.6333 8.04276 12.4725 8.34344 12.4074 8.67079C12.3423 8.99813 12.3757 9.33743 12.5035 9.64578C12.6312 9.95413 12.8475 10.2177 13.125 10.4031C13.4025 10.5885 13.7287 10.6875 14.0625 10.6875C14.3132 10.6862 14.5605 10.6286 14.7859 10.5188L15.75 11.4829V15.75H12.375V14.0625C12.3738 13.0186 11.9586 12.0178 11.2204 11.2796C10.4823 10.5414 9.48142 10.1262 8.4375 10.125H5.0625C4.01858 10.1262 3.01775 10.5414 2.27958 11.2796C1.54142 12.0178 1.12619 13.0186 1.125 14.0625V16.875H16.875V11.4829C16.8754 11.3351 16.8465 11.1888 16.7901 11.0523C16.7336 10.9157 16.6506 10.7918 16.5459 10.6875ZM2.25 14.0625C2.25089 13.3169 2.5475 12.602 3.07475 12.0747C3.602 11.5475 4.31685 11.2509 5.0625 11.25H8.4375C9.18315 11.2509 9.898 11.5475 10.4253 12.0747C10.9525 12.602 11.2491 13.3169 11.25 14.0625V15.75H2.25V14.0625Z" fill="#8892A4"/>
<path d="M6.75 2.25C7.30626 2.25 7.85003 2.41495 8.31254 2.72399C8.77506 3.03303 9.13554 3.47229 9.34841 3.9862C9.56128 4.50012 9.61698 5.06562 9.50846 5.61119C9.39994 6.15676 9.13207 6.6579 8.73874 7.05124C8.3454 7.44457 7.84426 7.71244 7.29869 7.82096C6.75312 7.92948 6.18762 7.87378 5.6737 7.66091C5.15979 7.44804 4.72054 7.08755 4.41149 6.62504C4.10245 6.16253 3.9375 5.61876 3.9375 5.0625C3.9375 4.31658 4.23382 3.60121 4.76126 3.07376C5.28871 2.54632 6.00408 2.25 6.75 2.25ZM6.75 1.125C5.97124 1.125 5.20996 1.35593 4.56244 1.78859C3.91493 2.22125 3.41025 2.8362 3.11223 3.55568C2.81421 4.27517 2.73623 5.06687 2.88816 5.83067C3.04009 6.59447 3.4151 7.29606 3.96577 7.84673C4.51644 8.3974 5.21803 8.77241 5.98183 8.92434C6.74563 9.07627 7.53733 8.99829 8.25682 8.70027C8.9763 8.40225 9.59126 7.89758 10.0239 7.25006C10.4566 6.60254 10.6875 5.84126 10.6875 5.0625C10.6875 4.01821 10.2727 3.01669 9.53423 2.27827C8.79581 1.53984 7.79429 1.125 6.75 1.125Z" fill="#8892A4"/>
</svg>
