<svg width="24" height="24" viewBox="0 0 24 24" fill="none" xmlns="http://www.w3.org/2000/svg">
<path fill-rule="evenodd" clip-rule="evenodd" d="M22.4883 12.0127C22.4883 17.7988 17.8081 22.4918 12.0269 22.5126C12.022 22.5127 12.0172 22.5127 12.0123 22.5127C12.0101 22.5127 12.0079 22.5127 12.0057 22.5127C11.9999 22.5127 11.9941 22.5127 11.9883 22.5127C6.18929 22.5127 1.48828 17.8117 1.48828 12.0127C1.48828 6.21371 6.18929 1.5127 11.9883 1.5127C11.9941 1.5127 11.9999 1.5127 12.0057 1.51271C12.0079 1.5127 12.0101 1.5127 12.0123 1.5127C12.0172 1.5127 12.0221 1.51272 12.0269 1.51276C17.8081 1.5336 22.4883 6.2266 22.4883 12.0127ZM11.9883 21.0247C12.1641 21.0247 12.3388 21.0197 12.5122 21.0097C12.8706 20.6182 13.3095 19.6627 13.678 18.8393C13.9776 18.1697 14.2552 17.3854 14.481 16.5127H9.54353C9.76938 17.3854 10.047 18.1697 10.3466 18.8393C10.716 19.6647 11.1561 20.6227 11.5149 21.0125C11.6717 21.0206 11.8295 21.0247 11.9883 21.0247ZM9.22335 15.0007H14.8012C14.9569 14.0662 15.0483 13.0621 15.0483 12.0127C15.0483 10.9543 14.9553 9.94197 14.7972 9.00069H9.22737C9.06928 9.94197 8.97628 10.9543 8.97628 12.0127C8.97628 13.0621 9.06771 14.0662 9.22335 15.0007ZM7.72324 9.00069C7.58732 9.95478 7.51228 10.9658 7.51228 12.0127C7.51228 13.0508 7.58607 14.0537 7.71984 15.0007H3.48344C3.15494 14.0656 2.97628 13.06 2.97628 12.0127C2.97628 10.9564 3.15801 9.94254 3.49191 9.00069H7.72324ZM9.54976 7.48869C9.77448 6.62565 10.0497 5.84951 10.3466 5.18609C10.716 4.36074 11.1561 3.40272 11.5149 3.01291C11.6717 3.0048 11.8295 3.0007 11.9883 3.0007C12.1641 3.0007 12.3388 3.00573 12.5122 3.01567C12.8706 3.40722 13.3095 4.36267 13.678 5.18609C13.9749 5.84951 14.2501 6.62565 14.4748 7.48869H9.54976ZM16.3013 9.00069C16.4372 9.95478 16.5123 10.9658 16.5123 12.0127C16.5123 13.0508 16.4385 14.0537 16.3047 15.0007H20.4931C20.8216 14.0656 21.0003 13.06 21.0003 12.0127C21.0003 10.9564 20.8186 9.94254 20.4846 9.00069H16.3013ZM19.7842 7.48869H16.0257C15.6492 5.80755 15.0811 4.37366 14.4185 3.33216C16.7012 3.9699 18.6183 5.4839 19.7842 7.48869ZM19.7981 16.5127H16.0311C15.6546 18.2042 15.0842 19.6468 14.4185 20.6932C16.7103 20.0529 18.6336 18.5294 19.7981 16.5127ZM7.99882 7.48869H4.19237C5.36817 5.46687 7.30795 3.94422 9.61633 3.3161C8.94932 4.3589 8.37732 5.79889 7.99882 7.48869ZM4.17846 16.5127H7.99346C8.37191 18.2129 8.94617 19.6616 9.61633 20.7093C7.29883 20.0787 5.35284 18.5465 4.17846 16.5127Z" fill="#8892A4"/>
</svg>
