<svg width="78" height="78" viewBox="0 0 78 78" fill="none" xmlns="http://www.w3.org/2000/svg">
<path d="M78 39C78 60.5391 60.5391 78 39 78C17.4609 78 0 60.5391 0 39C0 17.4609 17.4609 0 39 0C60.5391 0 78 17.4609 78 39Z" fill="#F9FAFD"/>
<path d="M17 26.3636C17 25.0582 18.0582 24 19.3636 24H59.5455C60.8509 24 61.9091 25.0582 61.9091 26.3636V53.25C61.9091 54.5554 60.8509 55.6136 59.5455 55.6136H19.3636C18.0582 55.6136 17 54.5554 17 53.25V26.3636Z" fill="#C5FFCB"/>
<path d="M36 35L45.8333 40L36 45V35Z" fill="#2C73E8"/>
</svg>
